<svg xmlns="http://www.w3.org/2000/svg" width="1600" height="1314" viewBox="0 0 1600 1314"><defs><marker id="ah" viewBox="0 0 10 10" refX="9" refY="5" markerWidth="7" markerHeight="7" orient="auto-start-reverse"><path d="M0 0 L10 5 L0 10 z" fill="#4A5568"/></marker><marker id="ahr" viewBox="0 0 10 10" refX="9" refY="5" markerWidth="7" markerHeight="7" orient="auto-start-reverse"><path d="M0 0 L10 5 L0 10 z" fill="#C7161D"/></marker></defs><rect width="1600" height="1314" fill="#FFFFFF"/><text x="40" y="48" font-family="DejaVu Sans, Arial, Helvetica, sans-serif" font-size="26" font-weight="bold" fill="#232F3E" text-anchor="start"></text><rect x="40" y="140.0" width="1520" height="514.5" rx="10" fill="#FDF6F5" stroke="#C7161D" stroke-width="1.6"/><text x="60" y="174.0" font-family="DejaVu Sans, Arial, Helvetica, sans-serif" font-size="16" font-weight="bold" fill="#C7161D" text-anchor="start">Express — hochfrequent und kurz, hier trotzdem falsch</text><rect x="60" y="195.0" width="1480" height="434.5" rx="6" fill="none" stroke="#00A4A6" stroke-width="1.8"/><g transform="translate(74,207.0) scale(0.55000)"><g fill="none" fill-rule="evenodd"><path fill="#00a4a6" d="M0 0h40v40H0z"/><path fill="#fff" d="M14 20.026v-9h15.293l-4.147 4.146a.5.5 0 0 0 0 .708l4.147 4.146zm12.207-4.5 4.647-4.646a.5.5 0 0 0-.354-.854H14V8.97A1.528 1.528 0 0 0 13.495 6c-.845 0-1.532.687-1.532 1.531 0 .67.435 1.235 1.037 1.442v24.053h-3v1h7v-1h-3v-12h16.5a.5.5 0 0 0 .354-.854z"/></g></g><text x="104" y="224.0" font-family="DejaVu Sans, Arial, Helvetica, sans-serif" font-size="13" font-weight="bold" fill="#00A4A6" text-anchor="start">Region eu-central-1</text><rect x="90" y="305.0" width="200" height="131.5" rx="8" fill="#FFFFFF" stroke="#B7BDC6" stroke-width="1.2"/><g transform="translate(168.0,317.0) scale(0.91667)"><path fill="#232f3d" fill-rule="evenodd" d="M37 35h9v2h-9v9h-2v-9h-9v-2h9v-9h2zM4 44h16V28H4zm17-18H3a1 1 0 0 0-1 1v18a1 1 0 0 0 1 1h18a1 1 0 0 0 1-1V27a1 1 0 0 0-1-1m7-6h16V4H28zM45 2H27a1 1 0 0 0-1 1v18a1 1 0 0 0 1 1h18a1 1 0 0 0 1-1V3a1 1 0 0 0-1-1M4 20h16V4H4zM21 2H3a1 1 0 0 0-1 1v18a1 1 0 0 0 1 1h18a1 1 0 0 0 1-1V3a1 1 0 0 0-1-1"/></g><text x="190.0" y="381.0" font-family="DejaVu Sans, Arial, Helvetica, sans-serif" font-size="12" font-weight="bold" fill="#232F3E" text-anchor="middle">Bestell-Dienst</text><text x="190.0" y="400.0" font-family="DejaVu Sans, Arial, Helvetica, sans-serif" font-size="11" fill="#5A6570" text-anchor="middle">startet einen Lauf</text><text x="190.0" y="414.0" font-family="DejaVu Sans, Arial, Helvetica, sans-serif" font-size="11" fill="#5A6570" text-anchor="middle">je Bestellung</text><rect x="730" y="215.0" width="780" height="389.5" rx="6" fill="none" stroke="#8C4FFF" stroke-width="1.8"/><g transform="translate(744,227.0) scale(0.50000)"><g fill="none" fill-rule="evenodd"><path fill="#8c4fff" d="M0 0h40v40H0z"/><path fill="#fff" d="m30.97 21.03-2.943-1.264v10.49c2.545-.353 2.932-2.969 2.948-3.088zm-3.943 9.24V19.76l-3.035 1.272v6.201c.013.054.445 2.767 3.035 3.036m.306-11.723a.5.5 0 0 1 .39.001l3.945 1.692a.5.5 0 0 1 .303.46v6.533c-.183 1.447-1.357 4.063-4.527 4.063-3.075 0-4.254-2.612-4.448-3.994l-.004-6.603c0-.2.12-.383.306-.46zm5.65.637-5.461-2.406-5.53 2.327v7.128c-.001.042-.054 2.868 1.657 4.623.917.941 2.194 1.42 3.795 1.42 1.602 0 2.887-.48 3.819-1.423 1.735-1.758 1.72-4.585 1.72-4.613zM31.98 31.55c-1.127 1.144-2.654 1.725-4.536 1.725-1.884 0-3.404-.58-4.517-1.727-2.005-2.063-1.94-5.197-1.935-5.329v-7.446a.5.5 0 0 1 .305-.46l6.035-2.54a.5.5 0 0 1 .396.003l5.956 2.625c.182.08.299.26.299.457v7.375c.002.125.027 3.255-2.003 5.317m-20.988-7.314h8v1h-8c-2.811 0-4.811-2.016-4.98-5.016A4 4 0 0 1 6 19.841c0-2.509 1.318-4.223 3.817-4.979a8 8 0 0 1-.032-.647c0-2.916 1.577-5.445 4.017-6.445 3.298-1.348 7.042-.894 9.106 1.104a8.2 8.2 0 0 1 1.76 2.485c.609-.45 1.4-.66 2.349-.614 1.78.09 3.149 1.713 3.433 4.007 1.498.124 2.485.883 3.01 2.308l-.937.346c-.428-1.157-1.208-1.673-2.531-1.673a.5.5 0 0 1-.5-.47c-.138-2.338-1.406-3.463-2.526-3.519-.945-.053-1.645.22-2.08.791a.5.5 0 0 1-.472.193.5.5 0 0 1-.395-.323 7.4 7.4 0 0 0-1.807-2.814c-1.788-1.73-5.09-2.099-8.031-.895-2.063.845-3.396 3.011-3.396 5.52 0 .272.035.695.066.958a.5.5 0 0 1-.376.544C8.169 16.29 7 17.678 7 19.841c0 .101-.001.201.009.302.14 2.495 1.703 4.093 3.983 4.093"/></g></g><text x="772" y="242.0" font-family="DejaVu Sans, Arial, Helvetica, sans-serif" font-size="12" font-weight="bold" fill="#8C4FFF" text-anchor="start">AWS Step Functions</text><rect x="755" y="257.0" width="730" height="209.5" rx="6" fill="none" stroke="#3B7D2F" stroke-width="1.8"/><g transform="translate(769,269.0) scale(0.45000)"><g fill="none" fill-rule="evenodd"><path fill="#00a4a6" d="M0 0h40v40H0z"/><path fill="#fff" d="M19.536 22.049c1.106 0 2.006.899 2.006 2.005s-.9 2.006-2.006 2.006-2.006-.9-2.006-2.006.9-2.005 2.006-2.005m-.524 4.958v3.494h1v-3.489a3 3 0 0 0 2.53-2.958 3.01 3.01 0 0 0-3.006-3.005 3.01 3.01 0 0 0-3.006 3.005 3.006 3.006 0 0 0 2.482 2.953M10 33.014h19.012V18H10zm4.046-20.53A5.49 5.49 0 0 1 19.529 7a5.49 5.49 0 0 1 5.483 5.484V17H14.046zM29.512 17h-3.5v-4.516A6.49 6.49 0 0 0 19.529 6a6.49 6.49 0 0 0-6.483 6.484V17H9.5a.5.5 0 0 0-.5.5v16.014a.5.5 0 0 0 .5.5h20.012a.5.5 0 0 0 .5-.5V17.5a.5.5 0 0 0-.5-.5"/></g></g><text x="795" y="282.0" font-family="DejaVu Sans, Arial, Helvetica, sans-serif" font-size="11" font-weight="bold" fill="#3B7D2F" text-anchor="start">State Machine · Typ ist nach dem Anlegen unveränderlich</text><rect x="790" y="305.0" width="200" height="131.5" rx="8" fill="#FFFFFF" stroke="#B7BDC6" stroke-width="1.2"/><g transform="translate(868.0,317.0) scale(0.68750)"><g fill="none" fill-rule="evenodd"><path fill="#e7157b" d="M0 0h64v64H0z"/><path fill="#fff" d="M37 34h15v-4H37zm16-6H36a1 1 0 0 0-1 1v6a1 1 0 0 0 1 1h17a1 1 0 0 0 1-1v-6a1 1 0 0 0-1-1M34.5 49.5c0 1.378-1.121 2.5-2.5 2.5a2.503 2.503 0 0 1-2.5-2.5c0-1.378 1.121-2.5 2.5-2.5s2.5 1.122 2.5 2.5M12 38v-3h13v3H12m0-9v-3h13v3zm17.5-14.5c0-1.378 1.121-2.5 2.5-2.5s2.5 1.122 2.5 2.5S33.379 17 32 17a2.503 2.503 0 0 1-2.5-2.5M44 42H20v-2h6a1 1 0 0 0 1-1v-5a1 1 0 0 0-1-1h-6v-2h6a1 1 0 0 0 1-1v-5a1 1 0 0 0-1-1h-6v-2h24v4h2v-5a1 1 0 0 0-1-1H33v-1.121c2-.457 3.5-2.242 3.5-4.379 0-2.481-2.019-4.5-4.5-4.5a4.505 4.505 0 0 0-4.5 4.5c0 2.137 1.5 3.922 3.5 4.379V20H19a1 1 0 0 0-1 1v3h-7a1 1 0 0 0-1 1v5a1 1 0 0 0 1 1h7v2h-7a1 1 0 0 0-1 1v5a1 1 0 0 0 1 1h7v3a1 1 0 0 0 1 1h12v1.121c-2 .457-3.5 2.242-3.5 4.379 0 2.481 2.019 4.5 4.5 4.5s4.5-2.019 4.5-4.5c0-2.137-1.5-3.922-3.5-4.379V44h12a1 1 0 0 0 1-1v-5h-2z"/></g></g><text x="890.0" y="381.0" font-family="DejaVu Sans, Arial, Helvetica, sans-serif" font-size="12" font-weight="bold" fill="#232F3E" text-anchor="middle">Zahlungsfreigabe</text><text x="890.0" y="400.0" font-family="DejaVu Sans, Arial, Helvetica, sans-serif" font-size="11" fill="#5A6570" text-anchor="middle">wartet auf eine</text><text x="890.0" y="414.0" font-family="DejaVu Sans, Arial, Helvetica, sans-serif" font-size="11" fill="#5A6570" text-anchor="middle">Genehmigung durch Menschen</text><rect x="1045" y="305.0" width="180" height="131.5" rx="8" fill="#FFFFFF" stroke="#C7161D" stroke-width="2.2"/><g transform="translate(1113.0,317.0) scale(0.68750)"><g fill="none" fill-rule="evenodd"><path fill="#e7157b" d="M0 0h64v64H0z"/><path fill="#fff" d="M37 34h15v-4H37zm16-6H36a1 1 0 0 0-1 1v6a1 1 0 0 0 1 1h17a1 1 0 0 0 1-1v-6a1 1 0 0 0-1-1M34.5 49.5c0 1.378-1.121 2.5-2.5 2.5a2.503 2.503 0 0 1-2.5-2.5c0-1.378 1.121-2.5 2.5-2.5s2.5 1.122 2.5 2.5M12 38v-3h13v3H12m0-9v-3h13v3zm17.5-14.5c0-1.378 1.121-2.5 2.5-2.5s2.5 1.122 2.5 2.5S33.379 17 32 17a2.503 2.503 0 0 1-2.5-2.5M44 42H20v-2h6a1 1 0 0 0 1-1v-5a1 1 0 0 0-1-1h-6v-2h6a1 1 0 0 0 1-1v-5a1 1 0 0 0-1-1h-6v-2h24v4h2v-5a1 1 0 0 0-1-1H33v-1.121c2-.457 3.5-2.242 3.5-4.379 0-2.481-2.019-4.5-4.5-4.5a4.505 4.505 0 0 0-4.5 4.5c0 2.137 1.5 3.922 3.5 4.379V20H19a1 1 0 0 0-1 1v3h-7a1 1 0 0 0-1 1v5a1 1 0 0 0 1 1h7v2h-7a1 1 0 0 0-1 1v5a1 1 0 0 0 1 1h7v3a1 1 0 0 0 1 1h12v1.121c-2 .457-3.5 2.242-3.5 4.379 0 2.481 2.019 4.5 4.5 4.5s4.5-2.019 4.5-4.5c0-2.137-1.5-3.922-3.5-4.379V44h12a1 1 0 0 0 1-1v-5h-2z"/></g></g><text x="1135.0" y="381.0" font-family="DejaVu Sans, Arial, Helvetica, sans-serif" font-size="12" font-weight="bold" fill="#232F3E" text-anchor="middle">Express</text><text x="1135.0" y="396.0" font-family="DejaVu Sans, Arial, Helvetica, sans-serif" font-size="12" font-weight="bold" fill="#232F3E" text-anchor="middle">Workflow</text><text x="1135.0" y="415.0" font-family="DejaVu Sans, Arial, Helvetica, sans-serif" font-size="10" fill="#5A6570" text-anchor="middle">fünf Minuten Deckel</text><text x="1135.0" y="428.0" font-family="DejaVu Sans, Arial, Helvetica, sans-serif" font-size="10" fill="#5A6570" text-anchor="middle">async at-least-once</text><rect x="1280" y="305.0" width="180" height="131.5" rx="8" fill="#FFFFFF" stroke="#C7161D" stroke-width="2.2"/><g transform="translate(1348.0,317.0) scale(0.91667)"><path fill="#e7157b" fill-rule="evenodd" d="M29.5 17c-3.258 0-6.03 2.092-7.062 5h2.169a5.5 5.5 0 0 1 4.893-3c3.032 0 5.5 2.467 5.5 5.5S32.532 30 29.5 30a5.49 5.49 0 0 1-4.24-2h-2.388a7.5 7.5 0 0 0 6.628 4c4.136 0 7.5-3.364 7.5-7.5S33.636 17 29.5 17M2 33h13v-2H2zm0-15h13v-2H2zm0 8h27v-2H2zm41.843 9.738-5.025-4.525a11.5 11.5 0 0 1-1.403 1.608l4.997 4.508a1.073 1.073 0 0 0 1.51-.08 1.075 1.075 0 0 0-.08-1.51m1.566 2.85a3.07 3.07 0 0 1-2.284 1.012 3.06 3.06 0 0 1-2.051-.785l-5.24-4.726A11.43 11.43 0 0 1 29.5 36c-5.12 0-9.467-3.366-10.951-8h2.128c1.397 3.51 4.822 6 8.823 6 5.238 0 9.5-4.262 9.5-9.5S34.738 15 29.5 15c-4.372 0-8.054 2.973-9.155 7h-2.063c1.146-5.143 5.737-9 11.218-9C35.84 13 41 18.158 41 24.5c0 1.777-.417 3.455-1.141 4.96l5.324 4.794a3.08 3.08 0 0 1 .226 4.334M1.999 41h19v-2H2zm0-31h21V8H2z"/></g><text x="1370.0" y="381.0" font-family="DejaVu Sans, Arial, Helvetica, sans-serif" font-size="12" font-weight="bold" fill="#232F3E" text-anchor="middle">Ausführungs-</text><text x="1370.0" y="396.0" font-family="DejaVu Sans, Arial, Helvetica, sans-serif" font-size="12" font-weight="bold" fill="#232F3E" text-anchor="middle">historie</text><text x="1370.0" y="415.0" font-family="DejaVu Sans, Arial, Helvetica, sans-serif" font-size="10" fill="#5A6570" text-anchor="middle">nur mit CloudWatch Logs</text><text x="1370.0" y="428.0" font-family="DejaVu Sans, Arial, Helvetica, sans-serif" font-size="10" fill="#5A6570" text-anchor="middle">im Dienst keine</text><path d="M294,344.45 L786,344.45" fill="none" stroke="#4A5568" stroke-width="2.0" marker-end="url(#ah)" stroke-linejoin="round"/><text x="540.0" y="330.45" font-family="DejaVu Sans, Arial, Helvetica, sans-serif" font-size="11" fill="#5A6570" text-anchor="middle">Der Bestell-Dienst startet die Zahlungsfreigabe</text><path d="M786,407.57 L294,407.57" fill="none" stroke="#C7161D" stroke-width="2.0" stroke-dasharray="8 5" marker-end="url(#ahr)" stroke-linejoin="round"/><text x="540.0" y="432.57" font-family="DejaVu Sans, Arial, Helvetica, sans-serif" font-size="11" font-weight="bold" fill="#C7161D" text-anchor="middle">nach fünf Minuten Abbruch, ohne Freigabe</text><rect x="400" y="471.5" width="260" height="118" rx="8" fill="#FFFFFF" stroke="#C7161D" stroke-width="2" stroke-dasharray="8 5"/><text x="530.0" y="511.5" font-family="DejaVu Sans, Arial, Helvetica, sans-serif" font-size="13" font-weight="bold" fill="#C7161D" text-anchor="middle">Hier fehlt das</text><text x="530.0" y="535.5" font-family="DejaVu Sans, Arial, Helvetica, sans-serif" font-size="13" font-weight="bold" fill="#C7161D" text-anchor="middle">Callback-Muster</text><text x="530.0" y="559.5" font-family="DejaVu Sans, Arial, Helvetica, sans-serif" font-size="11" fill="#8A5A5A" text-anchor="middle">kein .waitForTaskToken, kein .sync</text><rect x="40" y="684.5" width="1520" height="514.5" rx="10" fill="#F5FAF3" stroke="#3B7D2F" stroke-width="1.6"/><text x="60" y="718.5" font-family="DejaVu Sans, Arial, Helvetica, sans-serif" font-size="16" font-weight="bold" fill="#3B7D2F" text-anchor="start">Standard — langlaufend, auditierbar, nicht idempotent</text><rect x="60" y="739.5" width="1480" height="434.5" rx="6" fill="none" stroke="#00A4A6" stroke-width="1.8"/><g transform="translate(74,751.5) scale(0.55000)"><g fill="none" fill-rule="evenodd"><path fill="#00a4a6" d="M0 0h40v40H0z"/><path fill="#fff" d="M14 20.026v-9h15.293l-4.147 4.146a.5.5 0 0 0 0 .708l4.147 4.146zm12.207-4.5 4.647-4.646a.5.5 0 0 0-.354-.854H14V8.97A1.528 1.528 0 0 0 13.495 6c-.845 0-1.532.687-1.532 1.531 0 .67.435 1.235 1.037 1.442v24.053h-3v1h7v-1h-3v-12h16.5a.5.5 0 0 0 .354-.854z"/></g></g><text x="104" y="768.5" font-family="DejaVu Sans, Arial, Helvetica, sans-serif" font-size="13" font-weight="bold" fill="#00A4A6" text-anchor="start">Region eu-central-1</text><rect x="90" y="849.5" width="200" height="131.5" rx="8" fill="#FFFFFF" stroke="#B7BDC6" stroke-width="1.2"/><g transform="translate(168.0,861.5) scale(0.91667)"><path fill="#232f3d" fill-rule="evenodd" d="M37 35h9v2h-9v9h-2v-9h-9v-2h9v-9h2zM4 44h16V28H4zm17-18H3a1 1 0 0 0-1 1v18a1 1 0 0 0 1 1h18a1 1 0 0 0 1-1V27a1 1 0 0 0-1-1m7-6h16V4H28zM45 2H27a1 1 0 0 0-1 1v18a1 1 0 0 0 1 1h18a1 1 0 0 0 1-1V3a1 1 0 0 0-1-1M4 20h16V4H4zM21 2H3a1 1 0 0 0-1 1v18a1 1 0 0 0 1 1h18a1 1 0 0 0 1-1V3a1 1 0 0 0-1-1"/></g><text x="190.0" y="925.5" font-family="DejaVu Sans, Arial, Helvetica, sans-serif" font-size="12" font-weight="bold" fill="#232F3E" text-anchor="middle">Bestell-Dienst</text><text x="190.0" y="944.5" font-family="DejaVu Sans, Arial, Helvetica, sans-serif" font-size="11" fill="#5A6570" text-anchor="middle">startet einen Lauf</text><text x="190.0" y="958.5" font-family="DejaVu Sans, Arial, Helvetica, sans-serif" font-size="11" fill="#5A6570" text-anchor="middle">je Bestellung</text><rect x="730" y="759.5" width="780" height="389.5" rx="6" fill="none" stroke="#8C4FFF" stroke-width="1.8"/><g transform="translate(744,771.5) scale(0.50000)"><g fill="none" fill-rule="evenodd"><path fill="#8c4fff" d="M0 0h40v40H0z"/><path fill="#fff" d="m30.97 21.03-2.943-1.264v10.49c2.545-.353 2.932-2.969 2.948-3.088zm-3.943 9.24V19.76l-3.035 1.272v6.201c.013.054.445 2.767 3.035 3.036m.306-11.723a.5.5 0 0 1 .39.001l3.945 1.692a.5.5 0 0 1 .303.46v6.533c-.183 1.447-1.357 4.063-4.527 4.063-3.075 0-4.254-2.612-4.448-3.994l-.004-6.603c0-.2.12-.383.306-.46zm5.65.637-5.461-2.406-5.53 2.327v7.128c-.001.042-.054 2.868 1.657 4.623.917.941 2.194 1.42 3.795 1.42 1.602 0 2.887-.48 3.819-1.423 1.735-1.758 1.72-4.585 1.72-4.613zM31.98 31.55c-1.127 1.144-2.654 1.725-4.536 1.725-1.884 0-3.404-.58-4.517-1.727-2.005-2.063-1.94-5.197-1.935-5.329v-7.446a.5.5 0 0 1 .305-.46l6.035-2.54a.5.5 0 0 1 .396.003l5.956 2.625c.182.08.299.26.299.457v7.375c.002.125.027 3.255-2.003 5.317m-20.988-7.314h8v1h-8c-2.811 0-4.811-2.016-4.98-5.016A4 4 0 0 1 6 19.841c0-2.509 1.318-4.223 3.817-4.979a8 8 0 0 1-.032-.647c0-2.916 1.577-5.445 4.017-6.445 3.298-1.348 7.042-.894 9.106 1.104a8.2 8.2 0 0 1 1.76 2.485c.609-.45 1.4-.66 2.349-.614 1.78.09 3.149 1.713 3.433 4.007 1.498.124 2.485.883 3.01 2.308l-.937.346c-.428-1.157-1.208-1.673-2.531-1.673a.5.5 0 0 1-.5-.47c-.138-2.338-1.406-3.463-2.526-3.519-.945-.053-1.645.22-2.08.791a.5.5 0 0 1-.472.193.5.5 0 0 1-.395-.323 7.4 7.4 0 0 0-1.807-2.814c-1.788-1.73-5.09-2.099-8.031-.895-2.063.845-3.396 3.011-3.396 5.52 0 .272.035.695.066.958a.5.5 0 0 1-.376.544C8.169 16.29 7 17.678 7 19.841c0 .101-.001.201.009.302.14 2.495 1.703 4.093 3.983 4.093"/></g></g><text x="772" y="786.5" font-family="DejaVu Sans, Arial, Helvetica, sans-serif" font-size="12" font-weight="bold" fill="#8C4FFF" text-anchor="start">AWS Step Functions</text><rect x="755" y="801.5" width="730" height="209.5" rx="6" fill="none" stroke="#3B7D2F" stroke-width="1.8"/><g transform="translate(769,813.5) scale(0.45000)"><g fill="none" fill-rule="evenodd"><path fill="#00a4a6" d="M0 0h40v40H0z"/><path fill="#fff" d="M19.536 22.049c1.106 0 2.006.899 2.006 2.005s-.9 2.006-2.006 2.006-2.006-.9-2.006-2.006.9-2.005 2.006-2.005m-.524 4.958v3.494h1v-3.489a3 3 0 0 0 2.53-2.958 3.01 3.01 0 0 0-3.006-3.005 3.01 3.01 0 0 0-3.006 3.005 3.006 3.006 0 0 0 2.482 2.953M10 33.014h19.012V18H10zm4.046-20.53A5.49 5.49 0 0 1 19.529 7a5.49 5.49 0 0 1 5.483 5.484V17H14.046zM29.512 17h-3.5v-4.516A6.49 6.49 0 0 0 19.529 6a6.49 6.49 0 0 0-6.483 6.484V17H9.5a.5.5 0 0 0-.5.5v16.014a.5.5 0 0 0 .5.5h20.012a.5.5 0 0 0 .5-.5V17.5a.5.5 0 0 0-.5-.5"/></g></g><text x="795" y="826.5" font-family="DejaVu Sans, Arial, Helvetica, sans-serif" font-size="11" font-weight="bold" fill="#3B7D2F" text-anchor="start">State Machine · Typ ist nach dem Anlegen unveränderlich</text><rect x="790" y="849.5" width="200" height="131.5" rx="8" fill="#FFFFFF" stroke="#B7BDC6" stroke-width="1.2"/><g transform="translate(868.0,861.5) scale(0.68750)"><g fill="none" fill-rule="evenodd"><path fill="#e7157b" d="M0 0h64v64H0z"/><path fill="#fff" d="M37 34h15v-4H37zm16-6H36a1 1 0 0 0-1 1v6a1 1 0 0 0 1 1h17a1 1 0 0 0 1-1v-6a1 1 0 0 0-1-1M34.5 49.5c0 1.378-1.121 2.5-2.5 2.5a2.503 2.503 0 0 1-2.5-2.5c0-1.378 1.121-2.5 2.5-2.5s2.5 1.122 2.5 2.5M12 38v-3h13v3H12m0-9v-3h13v3zm17.5-14.5c0-1.378 1.121-2.5 2.5-2.5s2.5 1.122 2.5 2.5S33.379 17 32 17a2.503 2.503 0 0 1-2.5-2.5M44 42H20v-2h6a1 1 0 0 0 1-1v-5a1 1 0 0 0-1-1h-6v-2h6a1 1 0 0 0 1-1v-5a1 1 0 0 0-1-1h-6v-2h24v4h2v-5a1 1 0 0 0-1-1H33v-1.121c2-.457 3.5-2.242 3.5-4.379 0-2.481-2.019-4.5-4.5-4.5a4.505 4.505 0 0 0-4.5 4.5c0 2.137 1.5 3.922 3.5 4.379V20H19a1 1 0 0 0-1 1v3h-7a1 1 0 0 0-1 1v5a1 1 0 0 0 1 1h7v2h-7a1 1 0 0 0-1 1v5a1 1 0 0 0 1 1h7v3a1 1 0 0 0 1 1h12v1.121c-2 .457-3.5 2.242-3.5 4.379 0 2.481 2.019 4.5 4.5 4.5s4.5-2.019 4.5-4.5c0-2.137-1.5-3.922-3.5-4.379V44h12a1 1 0 0 0 1-1v-5h-2z"/></g></g><text x="890.0" y="925.5" font-family="DejaVu Sans, Arial, Helvetica, sans-serif" font-size="12" font-weight="bold" fill="#232F3E" text-anchor="middle">Zahlungsfreigabe</text><text x="890.0" y="944.5" font-family="DejaVu Sans, Arial, Helvetica, sans-serif" font-size="11" fill="#5A6570" text-anchor="middle">wartet auf eine</text><text x="890.0" y="958.5" font-family="DejaVu Sans, Arial, Helvetica, sans-serif" font-size="11" fill="#5A6570" text-anchor="middle">Genehmigung durch Menschen</text><rect x="1045" y="849.5" width="180" height="131.5" rx="8" fill="#FFFFFF" stroke="#3B7D2F" stroke-width="2.2"/><g transform="translate(1113.0,861.5) scale(0.68750)"><g fill="none" fill-rule="evenodd"><path fill="#e7157b" d="M0 0h64v64H0z"/><path fill="#fff" d="M37 34h15v-4H37zm16-6H36a1 1 0 0 0-1 1v6a1 1 0 0 0 1 1h17a1 1 0 0 0 1-1v-6a1 1 0 0 0-1-1M34.5 49.5c0 1.378-1.121 2.5-2.5 2.5a2.503 2.503 0 0 1-2.5-2.5c0-1.378 1.121-2.5 2.5-2.5s2.5 1.122 2.5 2.5M12 38v-3h13v3H12m0-9v-3h13v3zm17.5-14.5c0-1.378 1.121-2.5 2.5-2.5s2.5 1.122 2.5 2.5S33.379 17 32 17a2.503 2.503 0 0 1-2.5-2.5M44 42H20v-2h6a1 1 0 0 0 1-1v-5a1 1 0 0 0-1-1h-6v-2h6a1 1 0 0 0 1-1v-5a1 1 0 0 0-1-1h-6v-2h24v4h2v-5a1 1 0 0 0-1-1H33v-1.121c2-.457 3.5-2.242 3.5-4.379 0-2.481-2.019-4.5-4.5-4.5a4.505 4.505 0 0 0-4.5 4.5c0 2.137 1.5 3.922 3.5 4.379V20H19a1 1 0 0 0-1 1v3h-7a1 1 0 0 0-1 1v5a1 1 0 0 0 1 1h7v2h-7a1 1 0 0 0-1 1v5a1 1 0 0 0 1 1h7v3a1 1 0 0 0 1 1h12v1.121c-2 .457-3.5 2.242-3.5 4.379 0 2.481 2.019 4.5 4.5 4.5s4.5-2.019 4.5-4.5c0-2.137-1.5-3.922-3.5-4.379V44h12a1 1 0 0 0 1-1v-5h-2z"/></g></g><text x="1135.0" y="925.5" font-family="DejaVu Sans, Arial, Helvetica, sans-serif" font-size="12" font-weight="bold" fill="#232F3E" text-anchor="middle">Standard</text><text x="1135.0" y="940.5" font-family="DejaVu Sans, Arial, Helvetica, sans-serif" font-size="12" font-weight="bold" fill="#232F3E" text-anchor="middle">Workflow</text><text x="1135.0" y="959.5" font-family="DejaVu Sans, Arial, Helvetica, sans-serif" font-size="10" fill="#5A6570" text-anchor="middle">bis zu ein Jahr Laufzeit</text><text x="1135.0" y="972.5" font-family="DejaVu Sans, Arial, Helvetica, sans-serif" font-size="10" fill="#5A6570" text-anchor="middle">exactly-once</text><rect x="1280" y="849.5" width="180" height="131.5" rx="8" fill="#FFFFFF" stroke="#3B7D2F" stroke-width="2.2"/><g transform="translate(1348.0,861.5) scale(0.68750)"><g fill="none" fill-rule="evenodd"><path fill="#e7157b" d="M0 0h64v64H0z"/><path fill="#fff" d="M37 34h15v-4H37zm16-6H36a1 1 0 0 0-1 1v6a1 1 0 0 0 1 1h17a1 1 0 0 0 1-1v-6a1 1 0 0 0-1-1M34.5 49.5c0 1.378-1.121 2.5-2.5 2.5a2.503 2.503 0 0 1-2.5-2.5c0-1.378 1.121-2.5 2.5-2.5s2.5 1.122 2.5 2.5M12 38v-3h13v3H12m0-9v-3h13v3zm17.5-14.5c0-1.378 1.121-2.5 2.5-2.5s2.5 1.122 2.5 2.5S33.379 17 32 17a2.503 2.503 0 0 1-2.5-2.5M44 42H20v-2h6a1 1 0 0 0 1-1v-5a1 1 0 0 0-1-1h-6v-2h6a1 1 0 0 0 1-1v-5a1 1 0 0 0-1-1h-6v-2h24v4h2v-5a1 1 0 0 0-1-1H33v-1.121c2-.457 3.5-2.242 3.5-4.379 0-2.481-2.019-4.5-4.5-4.5a4.505 4.505 0 0 0-4.5 4.5c0 2.137 1.5 3.922 3.5 4.379V20H19a1 1 0 0 0-1 1v3h-7a1 1 0 0 0-1 1v5a1 1 0 0 0 1 1h7v2h-7a1 1 0 0 0-1 1v5a1 1 0 0 0 1 1h7v3a1 1 0 0 0 1 1h12v1.121c-2 .457-3.5 2.242-3.5 4.379 0 2.481 2.019 4.5 4.5 4.5s4.5-2.019 4.5-4.5c0-2.137-1.5-3.922-3.5-4.379V44h12a1 1 0 0 0 1-1v-5h-2z"/></g></g><text x="1370.0" y="925.5" font-family="DejaVu Sans, Arial, Helvetica, sans-serif" font-size="12" font-weight="bold" fill="#232F3E" text-anchor="middle">Abrechnung</text><text x="1370.0" y="944.5" font-family="DejaVu Sans, Arial, Helvetica, sans-serif" font-size="10" fill="#5A6570" text-anchor="middle">zählt State Transitions</text><text x="1370.0" y="957.5" font-family="DejaVu Sans, Arial, Helvetica, sans-serif" font-size="10" fill="#5A6570" text-anchor="middle">Express zählt Läufe</text><path d="M294,888.95 L786,888.95" fill="none" stroke="#4A5568" stroke-width="2.0" marker-end="url(#ah)" stroke-linejoin="round"/><text x="540.0" y="874.95" font-family="DejaVu Sans, Arial, Helvetica, sans-serif" font-size="11" fill="#5A6570" text-anchor="middle">Der Bestell-Dienst startet die Zahlungsfreigabe</text><path d="M786,952.07 L294,952.07" fill="none" stroke="#3B7D2F" stroke-width="2.0" marker-end="url(#ah)" stroke-linejoin="round"/><text x="540.0" y="977.07" font-family="DejaVu Sans, Arial, Helvetica, sans-serif" font-size="11" font-weight="bold" fill="#3B7D2F" text-anchor="middle">Freigabe trifft ein, der Lauf geht weiter</text><rect x="400" y="1016.0" width="260" height="118" rx="8" fill="#F5FAF3" stroke="#3B7D2F" stroke-width="2.2"/><g transform="translate(510.0,1028.0) scale(0.62500)"><g fill="none" fill-rule="evenodd"><path fill="#e7157b" d="M0 0h64v64H0z"/><path fill="#fff" d="M37 34h15v-4H37zm16-6H36a1 1 0 0 0-1 1v6a1 1 0 0 0 1 1h17a1 1 0 0 0 1-1v-6a1 1 0 0 0-1-1M34.5 49.5c0 1.378-1.121 2.5-2.5 2.5a2.503 2.503 0 0 1-2.5-2.5c0-1.378 1.121-2.5 2.5-2.5s2.5 1.122 2.5 2.5M12 38v-3h13v3H12m0-9v-3h13v3zm17.5-14.5c0-1.378 1.121-2.5 2.5-2.5s2.5 1.122 2.5 2.5S33.379 17 32 17a2.503 2.503 0 0 1-2.5-2.5M44 42H20v-2h6a1 1 0 0 0 1-1v-5a1 1 0 0 0-1-1h-6v-2h6a1 1 0 0 0 1-1v-5a1 1 0 0 0-1-1h-6v-2h24v4h2v-5a1 1 0 0 0-1-1H33v-1.121c2-.457 3.5-2.242 3.5-4.379 0-2.481-2.019-4.5-4.5-4.5a4.505 4.505 0 0 0-4.5 4.5c0 2.137 1.5 3.922 3.5 4.379V20H19a1 1 0 0 0-1 1v3h-7a1 1 0 0 0-1 1v5a1 1 0 0 0 1 1h7v2h-7a1 1 0 0 0-1 1v5a1 1 0 0 0 1 1h7v3a1 1 0 0 0 1 1h12v1.121c-2 .457-3.5 2.242-3.5 4.379 0 2.481 2.019 4.5 4.5 4.5s4.5-2.019 4.5-4.5c0-2.137-1.5-3.922-3.5-4.379V44h12a1 1 0 0 0 1-1v-5h-2z"/></g></g><text x="530.0" y="1088.0" font-family="DejaVu Sans, Arial, Helvetica, sans-serif" font-size="12" font-weight="bold" fill="#232F3E" text-anchor="middle">Callback mit Task Token</text><text x="530.0" y="1107.0" font-family="DejaVu Sans, Arial, Helvetica, sans-serif" font-size="11" fill="#5A6570" text-anchor="middle">der Lauf wartet, bis der Mensch entscheidet</text><text x="40" y="1299.0" font-family="DejaVu Sans, Arial, Helvetica, sans-serif" font-size="10" fill="#8A94A6" text-anchor="start">Icons: AWS Architecture Icons (© Amazon Web Services, Inc.)</text><circle cx="360" cy="344.45" r="11.5" fill="#FFFFFF" stroke="#232F3E" stroke-width="1.6"/><text x="360" y="348.45" font-family="DejaVu Sans, Arial, Helvetica, sans-serif" font-size="12" font-weight="bold" fill="#232F3E" text-anchor="middle">1</text><circle cx="755" cy="407.57" r="15" fill="#FFFFFF" stroke="#C7161D" stroke-width="2"/><path d="M749.45 402.02 L760.55 413.12 M760.55 402.02 L749.45 413.12" fill="none" stroke="#C7161D" stroke-width="2.5" stroke-linecap="round"/><circle cx="360" cy="407.57" r="11.5" fill="#FFFFFF" stroke="#232F3E" stroke-width="1.6"/><text x="360" y="411.57" font-family="DejaVu Sans, Arial, Helvetica, sans-serif" font-size="12" font-weight="bold" fill="#232F3E" text-anchor="middle">2</text><circle cx="1045" cy="305.0" r="11.5" fill="#FFFFFF" stroke="#232F3E" stroke-width="1.6"/><text x="1045" y="309.0" font-family="DejaVu Sans, Arial, Helvetica, sans-serif" font-size="12" font-weight="bold" fill="#232F3E" text-anchor="middle">3</text><circle cx="1280" cy="305.0" r="11.5" fill="#FFFFFF" stroke="#232F3E" stroke-width="1.6"/><text x="1280" y="309.0" font-family="DejaVu Sans, Arial, Helvetica, sans-serif" font-size="12" font-weight="bold" fill="#232F3E" text-anchor="middle">4</text><circle cx="360" cy="888.95" r="11.5" fill="#FFFFFF" stroke="#232F3E" stroke-width="1.6"/><text x="360" y="892.95" font-family="DejaVu Sans, Arial, Helvetica, sans-serif" font-size="12" font-weight="bold" fill="#232F3E" text-anchor="middle">5</text><circle cx="755" cy="952.07" r="15" fill="#FFFFFF" stroke="#3B7D2F" stroke-width="2"/><path d="M749 952.07 L753.5 957.07 L761.5 946.57" fill="none" stroke="#3B7D2F" stroke-width="2.5" stroke-linecap="round" stroke-linejoin="round"/><circle cx="360" cy="952.07" r="11.5" fill="#FFFFFF" stroke="#232F3E" stroke-width="1.6"/><text x="360" y="956.07" font-family="DejaVu Sans, Arial, Helvetica, sans-serif" font-size="12" font-weight="bold" fill="#232F3E" text-anchor="middle">6</text><circle cx="1045" cy="849.5" r="11.5" fill="#FFFFFF" stroke="#232F3E" stroke-width="1.6"/><text x="1045" y="853.5" font-family="DejaVu Sans, Arial, Helvetica, sans-serif" font-size="12" font-weight="bold" fill="#232F3E" text-anchor="middle">7</text><circle cx="1280" cy="849.5" r="11.5" fill="#FFFFFF" stroke="#232F3E" stroke-width="1.6"/><text x="1280" y="853.5" font-family="DejaVu Sans, Arial, Helvetica, sans-serif" font-size="12" font-weight="bold" fill="#232F3E" text-anchor="middle">8</text></svg>