<svg xmlns="http://www.w3.org/2000/svg" width="1600" height="980" viewBox="0 0 1600 980"><defs><marker id="ah" viewBox="0 0 10 10" refX="9" refY="5" markerWidth="7" markerHeight="7" orient="auto-start-reverse"><path d="M0 0 L10 5 L0 10 z" fill="#4A5568"/></marker><marker id="ahr" viewBox="0 0 10 10" refX="9" refY="5" markerWidth="7" markerHeight="7" orient="auto-start-reverse"><path d="M0 0 L10 5 L0 10 z" fill="#C7161D"/></marker></defs><rect width="1600" height="980" fill="#FFFFFF"/><text x="40" y="48" font-family="DejaVu Sans, Arial, Helvetica, sans-serif" font-size="26" font-weight="bold" fill="#232F3E" text-anchor="start"></text><rect x="230" y="110" width="1330" height="690" rx="6" fill="none" stroke="#232F3E" stroke-width="1.8"/><g transform="translate(244,122) scale(0.60000)"><g fill="none" fill-rule="evenodd"><path fill="#242f3e" d="M0 0h40v40H0z"/><path fill="#fff" d="m28.993 27.995-17.506-.019c-2.366-.002-4.333-1.847-4.475-4.2A6 6 0 0 1 7 23.396c0-3.098 2.091-4.11 3.337-4.438a.5.5 0 0 0 .37-.54 7 7 0 0 1-.048-.823c0-2.464 1.649-5.114 3.756-6.033.944-.413 1.817-.577 2.608-.577 2.253 0 3.844 1.33 4.538 2.047.768.793 1.366 1.805 1.779 3.01a.498.498 0 0 0 .879.128c.588-.82 1.547-1.189 2.44-.932 1.123.321 1.857 1.488 1.961 3.068a.5.5 0 0 0 .407.57C30.222 19.09 33 19.957 33 23.44c0 4.15-3.886 4.542-4.007 4.555m.601-10.02c-.215-1.908-1.194-3.279-2.66-3.697-1.035-.296-2.123-.033-2.945.672-.436-1.014-1.01-1.89-1.709-2.612-2.257-2.333-5.347-2.966-8.266-1.692-2.483 1.084-4.355 4.072-4.355 6.95q0 .261.017.518C8.319 18.574 6 19.875 6 23.397q0 .229.014.441c.174 2.878 2.579 5.135 5.472 5.138l17.548.017C29.084 28.99 34 28.52 34 23.44c0-3.938-2.997-5.126-4.406-5.466"/></g></g><text x="276" y="141" font-family="DejaVu Sans, Arial, Helvetica, sans-serif" font-size="14" font-weight="bold" fill="#232F3E" text-anchor="start">AWS Cloud</text><rect x="252" y="165" width="1288" height="580" rx="6" fill="none" stroke="#00A4A6" stroke-width="1.8"/><g transform="translate(266,177) scale(0.55000)"><g fill="none" fill-rule="evenodd"><path fill="#00a4a6" d="M0 0h40v40H0z"/><path fill="#fff" d="M14 20.026v-9h15.293l-4.147 4.146a.5.5 0 0 0 0 .708l4.147 4.146zm12.207-4.5 4.647-4.646a.5.5 0 0 0-.354-.854H14V8.97A1.528 1.528 0 0 0 13.495 6c-.845 0-1.532.687-1.532 1.531 0 .67.435 1.235 1.037 1.442v24.053h-3v1h7v-1h-3v-12h16.5a.5.5 0 0 0 .354-.854z"/></g></g><text x="296" y="194" font-family="DejaVu Sans, Arial, Helvetica, sans-serif" font-size="13" font-weight="bold" fill="#00A4A6" text-anchor="start">Region eu-central-1 (Frankfurt)</text><rect x="40" y="360.0" width="150" height="115" rx="8" fill="#FFFFFF" stroke="#B7BDC6" stroke-width="1.2"/><g transform="translate(94.0,372.0) scale(0.87500)"><path fill="#7aa116" fill-rule="evenodd" d="M22.664 40.394h3.01l-1.505-2.04zm-2.785.406 3.485-4.724c.377-.512 1.233-.512 1.61 0l3.485 4.724a1.001 1.001 0 0 1-.805 1.594h-6.97a1.002 1.002 0 0 1-.805-1.594m-8.345-.168a1.354 1.354 0 0 0 0-2.705 1.354 1.354 0 0 0 0 2.705m0-4.705a3.357 3.357 0 0 1 3.353 3.353 3.356 3.356 0 0 1-3.353 3.352 3.356 3.356 0 0 1-3.352-3.352 3.356 3.356 0 0 1 3.352-3.353M6 43.943h36.338v-9.327H6zm38.338 1a1 1 0 0 1-1 1H5a1 1 0 0 1-1-1V33.616a1 1 0 0 1 1-1h18.169v-11.4l-1.778 1.78-1.415-1.414 3.486-3.486a1 1 0 0 1 1.414 0l3.485 3.486-1.414 1.414-1.778-1.78v11.4h18.169a1 1 0 0 1 1 1zM4.68 19.942c0-3.447 1.858-6.081 5.018-7.19a10 10 0 0 1-.009-.425c0-3.916 2.654-7.98 6.173-9.454 4.103-1.72 8.456-.868 11.641 2.287a11.6 11.6 0 0 1 2.242 3.177 4.77 4.77 0 0 1 2.754-.88c2.158 0 4.581 1.596 5.089 5.08 3.062.767 6.07 3.063 6.07 7.466 0 5.589-4.642 7.439-7.098 7.637l-9.779-.006.002-2 9.698.009c.13-.016 5.177-.516 5.177-5.64 0-4.315-3.615-5.391-5.169-5.653a1 1 0 0 1-.829-1.086c-.194-2.785-1.825-3.806-3.161-3.806-.895 0-1.736.44-2.31 1.209-.219.296-.58.442-.95.392a1 1 0 0 1-.793-.652c-.549-1.535-1.34-2.824-2.35-3.826-1.244-1.232-4.661-3.88-9.461-1.863-2.774 1.16-4.946 4.503-4.946 7.609 0 .353.025.698.063 1.036a1 1 0 0 1-.749 1.084c-1.614.407-4.323 1.662-4.323 5.495 0 .175.007.332.015.49.181 2.902 2.737 5.185 5.816 5.185l9.045.008-.002 2-9.044-.008c-4.132 0-7.564-3.107-7.812-7.072a11 11 0 0 1-.018-.603"/></g><text x="115.0" y="434.0" font-family="DejaVu Sans, Arial, Helvetica, sans-serif" font-size="12" font-weight="bold" fill="#232F3E" text-anchor="middle">Sensorflotte</text><text x="115.0" y="453.0" font-family="DejaVu Sans, Arial, Helvetica, sans-serif" font-size="11" fill="#5A6570" text-anchor="middle">100.000 Geräte,</text><text x="115.0" y="467.0" font-family="DejaVu Sans, Arial, Helvetica, sans-serif" font-size="11" fill="#5A6570" text-anchor="middle">kurze Abstände</text><path d="M194,417.5 L286,417.5" fill="none" stroke="#4A5568" stroke-width="2.0" marker-end="url(#ah)" stroke-linejoin="round"/><rect x="290" y="360.0" width="170" height="115" rx="8" fill="#FFFFFF" stroke="#B7BDC6" stroke-width="1.2"/><g transform="translate(353.0,372.0) scale(0.68750)"><g fill="none" fill-rule="evenodd"><path fill="#7aa116" d="M0 0h64v64H0z"/><path fill="#fff" d="M47.147 38.995c0-.827-.672-1.5-1.498-1.5a1.501 1.501 0 0 0 0 3c.826 0 1.498-.672 1.498-1.5m-2.863 3.223a3.51 3.51 0 0 1-1.969-2.222h-1.162V45.9c1.306-.888 2.433-2.205 3.131-3.683m-5.129 4.635v-7.858a1 1 0 0 1 1-1h2.16a3.5 3.5 0 0 1 2.005-2.235c-.924-2.172-2.694-4.29-4.855-5.044A3.5 3.5 0 0 1 37.2 32.83v14.346c.66-.057 1.371-.166 1.956-.323m-3.953.32V32.83a3.5 3.5 0 0 1-2.269-2.125c-2.2.738-4.038 2.898-4.97 5.056a3.5 3.5 0 0 1 2 2.234h2.16a1 1 0 0 1 1 1v7.785c.565.18 1.324.321 2.079.392m-4.077-1.401v-5.775h-1.162a3.5 3.5 0 0 1-1.976 2.225c.678 1.366 1.811 2.644 3.138 3.55m-4.495-5.275a1.501 1.501 0 0 0 0-3.001 1.501 1.501 0 0 0 0 3m8.072-11.003c0 .827.672 1.5 1.499 1.5a1.501 1.501 0 0 0 0-3c-.827 0-1.499.673-1.499 1.5m14.443 9.503a3.505 3.505 0 0 1-2.784 3.428c-.98 2.493-2.924 4.653-5.208 5.786V52h-1.998v-3.092c-.642.137-1.327.23-1.956.277V52h-1.997v-2.82a14 14 0 0 1-2.08-.323V52h-1.997v-3.904c-2.324-1.204-4.297-3.348-5.225-5.678a3.505 3.505 0 0 1-2.767-3.423 3.504 3.504 0 0 1 2.75-3.416c1.105-3.009 3.69-6.1 6.934-6.928.379-1.523 1.746-2.66 3.384-2.66 1.639 0 3.008 1.14 3.385 2.667 3.301.869 5.748 4.005 6.81 6.921a3.504 3.504 0 0 1 2.749 3.416m3.854-7.63c.038 2.263-.863 4.463-2.409 5.919l-1.367-1.458c1.142-1.075 1.806-2.718 1.777-4.394 0-3.242-2.373-5.858-5.518-6.153a1 1 0 0 1-.904-1.061c.01-.145.015-.196.015-.248 0-2.034-1.642-3.688-3.66-3.688-.943 0-1.84.363-2.524 1.021-.244.234-.59.328-.914.255a1 1 0 0 1-.714-.625C35.456 17.385 32.046 15 28.294 15c-5.005 0-9.076 4.1-9.076 9.142 0 .432-.277.82-.688.955a6.59 6.59 0 0 0-4.532 6.285c0 3.646 2.945 6.612 6.563 6.612v2c-4.721 0-8.561-3.864-8.561-8.612 0-3.5 2.079-6.605 5.241-7.937C17.603 17.623 22.422 13 28.294 13c4.142 0 7.944 2.378 9.829 6.033a5.6 5.6 0 0 1 2.81-.752c2.936 0 5.357 2.26 5.632 5.14 3.725.768 6.434 4.037 6.434 7.945"/></g></g><text x="375.0" y="436.0" font-family="DejaVu Sans, Arial, Helvetica, sans-serif" font-size="12" font-weight="bold" fill="#232F3E" text-anchor="middle">AWS IoT Core</text><text x="375.0" y="455.0" font-family="DejaVu Sans, Arial, Helvetica, sans-serif" font-size="11" fill="#5A6570" text-anchor="middle">terminiert die</text><text x="375.0" y="469.0" font-family="DejaVu Sans, Arial, Helvetica, sans-serif" font-size="11" fill="#5A6570" text-anchor="middle">MQTT-Verbindungen</text><rect x="290" y="530.0" width="170" height="115" rx="8" fill="#FFFFFF" stroke="#B7BDC6" stroke-width="1.2"/><g transform="translate(353.0,542.0) scale(0.91667)"><path fill="#7aa116" fill-rule="evenodd" d="M29.948 35.041h2V45a1.001 1.001 0 0 1-1.566.824L24.02 41.45l-6.36 4.374A1 1 0 0 1 16.092 45v-9.959h2v8.058l5.361-3.687a1 1 0 0 1 1.133 0l5.361 3.687zM9 19.02C9 10.738 15.738 4 24.02 4s15.021 6.738 15.021 15.02-6.739 15.021-15.02 15.021C15.737 34.041 9 27.303 9 19.02m-2 0c0 9.385 7.635 17.021 17.02 17.021s17.021-7.636 17.021-17.021C41.041 9.636 33.405 2 24.021 2 14.634 2 7 9.636 7 19.02m8.268.433a.846.846 0 1 1 1.692.002.846.846 0 0 1-1.692-.002m-2 0a2.85 2.85 0 0 0 2.846 2.845 2.85 2.85 0 0 0 2.845-2.845 2.85 2.85 0 0 0-2.845-2.845 2.85 2.85 0 0 0-2.846 2.845m21.38.733H23.73a1 1 0 0 0-.957.709c-.655 2.166-2.59 3.62-4.814 3.62a5.07 5.07 0 0 1-5.063-5.062 5.07 5.07 0 0 1 5.063-5.061c2.224 0 4.16 1.455 4.814 3.62a1 1 0 0 0 .957.71h1.871c.278 0 .542-.116.731-.318l.851-.911.85.911c.19.202.454.318.731.318h1.055c.277 0 .542-.116.732-.318l.85-.911.85.911c.188.202.453.318.73.318h1.224l1.017.836zm.55-3.238a1 1 0 0 0-.636-.226h-1.146l-1.284-1.377c-.379-.405-1.084-.405-1.463 0l-1.284 1.377H29.2l-1.284-1.377a.999.999 0 0 0-1.462 0l-1.286 1.377h-.735c-1.096-2.618-3.612-4.33-6.473-4.33-3.895 0-7.063 3.168-7.063 7.061 0 3.894 3.168 7.062 7.063 7.062 2.861 0 5.377-1.711 6.473-4.329H35.09c.281 0 .548-.119.738-.326l1.582-1.732a1.004 1.004 0 0 0-.104-1.448z"/></g><text x="375.0" y="606.0" font-family="DejaVu Sans, Arial, Helvetica, sans-serif" font-size="12" font-weight="bold" fill="#232F3E" text-anchor="middle">IoT Policy</text><text x="375.0" y="625.0" font-family="DejaVu Sans, Arial, Helvetica, sans-serif" font-size="11" fill="#5A6570" text-anchor="middle">Recht hängt am</text><text x="375.0" y="639.0" font-family="DejaVu Sans, Arial, Helvetica, sans-serif" font-size="11" fill="#5A6570" text-anchor="middle">X.509-Zertifikat</text><path d="M375.0,479.0 L375.0,526.0" fill="none" stroke="#4A5568" stroke-width="2.0" marker-end="url(#ah)" stroke-linejoin="round"/><path d="M460,417.5 L526,417.5" fill="none" stroke="#4A5568" stroke-width="2.0" marker-end="url(#ah)" stroke-linejoin="round"/><rect x="530" y="320.0" width="200" height="195" rx="8" fill="#FDF1F6" stroke="#E7157B" stroke-width="2.5"/><g transform="translate(594.0,332.0) scale(1.50000)"><path fill="#7aa116" fill-rule="evenodd" d="M33.081 9.108a2.557 2.557 0 0 1-2.554-2.555 2.556 2.556 0 0 1 2.554-2.552 2.556 2.556 0 0 1 2.554 2.552 2.557 2.557 0 0 1-2.554 2.555m-20.08-.925h4.118v-4.12H13zm20.08-6.182a4.56 4.56 0 0 0-4.554 4.553c0 .81.231 1.56.603 2.22l-4.88 3.309-5.13-3.478V3.063a1 1 0 0 0-1-1H12a1 1 0 0 0-1 1v6.12a1 1 0 0 0 1 1h5.884l5.441 3.688v2.403h2v-2.506l5.151-3.49c.74.518 1.635.83 2.605.83a4.56 4.56 0 0 0 4.554-4.555 4.56 4.56 0 0 0-4.554-4.552m-8.74 42.259c-6.03 0-9.406-1.517-9.52-2.16V26.364c2.217 1.148 5.951 1.692 9.52 1.692s7.303-.544 9.52-1.692v15.732c-.116.648-3.495 2.164-9.52 2.164m11.503-20.378a2 2 0 0 0-.06-.422c-.292-1.03-1.348-1.844-3.228-2.49l-.649 1.893c1.327.454 1.808.893 1.925 1.085-.302.68-3.632 2.108-9.49 2.108-5.868 0-9.195-1.428-9.492-2.107.113-.19.591-.63 1.924-1.087l-.648-1.892c-1.88.646-2.937 1.46-3.229 2.489-.039.136-.05.282-.059.422h-.018c0 .023.008.043.01.064-.002.02-.01.04-.01.06V42.1c0 2.858 5.972 4.16 11.521 4.16s11.52-1.301 11.52-4.16V24.005c0-.02-.008-.04-.009-.06.001-.021.01-.04.01-.064zm-11.503-1.748-3.386-3.17h6.772zm7.056 2.08v-6.25a1 1 0 0 0-1-1H18.253a1 1 0 0 0-1 1v6.25h2v-4.102l4.404 4.122c.193.18.438.27.684.27a1 1 0 0 0 .683-.27l4.373-4.094v4.075z"/></g><text x="630.0" y="424.0" font-family="DejaVu Sans, Arial, Helvetica, sans-serif" font-size="16" font-weight="bold" fill="#232F3E" text-anchor="middle">IoT Rules Engine</text><text x="630.0" y="447.0" font-family="DejaVu Sans, Arial, Helvetica, sans-serif" font-size="12" fill="#5A6570" text-anchor="middle">SQL-Statement auf dem</text><text x="630.0" y="462.0" font-family="DejaVu Sans, Arial, Helvetica, sans-serif" font-size="12" fill="#5A6570" text-anchor="middle">Topic-Stream</text><text x="630.0" y="477.0" font-family="DejaVu Sans, Arial, Helvetica, sans-serif" font-size="12" fill="#5A6570" text-anchor="middle"></text><text x="630.0" y="492.0" font-family="DejaVu Sans, Arial, Helvetica, sans-serif" font-size="12" fill="#5A6570" text-anchor="middle">kein eigener Code nötig</text><rect x="530" y="530.0" width="200" height="115" rx="8" fill="#FFFFFF" stroke="#B7BDC6" stroke-width="1.2"/><g transform="translate(608.0,542.0) scale(0.91667)"><path fill="#7aa116" fill-rule="evenodd" d="M11 39.954V14.329c2.77 1.666 8.001 2.319 12.998 2.319 4.809 0 10.17-.676 12.998-2.407v25.713c0 1.614-5.063 3.96-12.998 3.96S11 41.568 11 39.954M38.97 11.32c-.012-.151-.019-.305-.054-.444-.338-1.403-1.698-2.597-4.045-3.545l-.75 1.854c1.617.654 2.683 1.46 2.853 2.166q.003.024.005.049c-.166 1.296-4.381 3.077-11.919 3.233h-2.138c-7.691-.15-11.818-1.877-11.912-3.167.004-.04.005-.08.015-.123.167-.698 1.233-1.504 2.85-2.158l-.75-1.854c-2.347.948-3.707 2.142-4.042 3.536a2.7 2.7 0 0 0-.068.553H9c0 .02.007.038.008.057-.001.021-.008.041-.008.061v28.416c0 3.871 7.727 5.96 14.998 5.96s14.998-2.089 14.998-5.96V11.538c0-.038-.012-.074-.014-.113.002-.035.014-.069.014-.105zM23.998 9.001 18.656 4H29.34zm-6.874-3.694 6.19 5.794a1.005 1.005 0 0 0 1.368 0l6.19-5.794v7.229h2V3a1 1 0 0 0-1-1H16.124a1 1 0 0 0-1 1v9.536h2z"/></g><text x="630.0" y="606.0" font-family="DejaVu Sans, Arial, Helvetica, sans-serif" font-size="12" font-weight="bold" fill="#232F3E" text-anchor="middle">Basic Ingest</text><text x="630.0" y="625.0" font-family="DejaVu Sans, Arial, Helvetica, sans-serif" font-size="10" fill="#5A6570" text-anchor="middle">nimmt den Broker aus dem Weg</text><text x="630.0" y="638.0" font-family="DejaVu Sans, Arial, Helvetica, sans-serif" font-size="10" fill="#5A6570" text-anchor="middle">spart Kosten, kein Fan-out</text><text x="880" y="214" font-family="DejaVu Sans, Arial, Helvetica, sans-serif" font-size="11" font-weight="bold" fill="#146EB4" text-anchor="middle">zwei Actions an derselben Regel</text><path d="M734,360.0 L765,360.0 L765,287.5 L796,287.5" fill="none" stroke="#4A5568" stroke-width="2.0" marker-end="url(#ah)" stroke-linejoin="round"/><rect x="800" y="230" width="190" height="115" rx="8" fill="#FFFFFF" stroke="#146EB4" stroke-width="2.2"/><g transform="translate(873.0,242) scale(0.91667)"><path fill="#7aa116" fill-rule="evenodd" d="M32.546 23.274a1 1 0 0 1 0 1.367L19.448 38.612l-1.459-1.367 12.456-13.287L17.99 10.67l1.46-1.368zM4 23.958C4 12.953 12.953 4 23.958 4s19.957 8.953 19.957 19.958-8.953 19.957-19.957 19.957S4 34.962 4 23.958m-2 0c0 12.107 9.851 21.957 21.958 21.957 12.108 0 21.957-9.85 21.957-21.957S36.066 2 23.958 2C11.851 2 2 11.85 2 23.958"/></g><text x="895.0" y="306" font-family="DejaVu Sans, Arial, Helvetica, sans-serif" font-size="12" font-weight="bold" fill="#232F3E" text-anchor="middle">Action dynamoDBv2</text><text x="895.0" y="325" font-family="DejaVu Sans, Arial, Helvetica, sans-serif" font-size="10" fill="#5A6570" text-anchor="middle">legt jedes Attribut</text><text x="895.0" y="338" font-family="DejaVu Sans, Arial, Helvetica, sans-serif" font-size="10" fill="#5A6570" text-anchor="middle">in eine eigene Spalte</text><path d="M990,287.5 L1046,287.5" fill="none" stroke="#4A5568" stroke-width="2.0" marker-end="url(#ah)" stroke-linejoin="round"/><rect x="1050" y="230" width="170" height="115" rx="8" fill="#FFFFFF" stroke="#B7BDC6" stroke-width="1.2"/><g transform="translate(1113.0,242) scale(0.68750)"><g fill="none" fill-rule="evenodd"><path fill="#c925d1" d="M0 0h64v64H0z"/><path fill="#fff" d="M46.586 25.25H43a1 1 0 0 1-.822-.435 1.02 1.02 0 0 1-.114-.931l2.493-6.722h-8.913l-4.091 9.098H36c.32 0 .623.156.812.42.187.264.239.602.136.91l-3.66 11.101zm3.12-.297L31.709 43.15a.99.99 0 0 1-1.232.146 1.014 1.014 0 0 1-.423-1.18l4.56-13.833H30a1 1 0 0 1-.841-.463 1.02 1.02 0 0 1-.07-.966l5-11.12a1 1 0 0 1 .91-.593h11c.329 0 .636.163.823.435.187.273.23.62.115.931l-2.494 6.721H49a1 1 0 0 1 .924.624c.155.378.069.813-.217 1.102M41.002 44.22c-2.71 1.886-7.687 2.882-12.468 2.882-4.816 0-9.837-1.01-12.533-2.924l.001 3.816c0 1.664 4.768 3.984 12.532 3.984 7.495 0 12.468-2.702 12.468-4.49zm2.064-3.27c0 .187-.032.367-.064.546v5.993C43 51.079 36.51 54 28.533 54c-6.903 0-13.871-1.89-14.473-5.5h-.059L14 43.445V16.151h.001c0-3.996 7.487-6.151 14.532-6.151 3.94 0 7.73.64 10.397 1.756l-.766 1.868c-2.432-1.019-5.943-1.602-9.631-1.602-7.764 0-12.532 2.405-12.532 4.13 0 1.724 4.768 4.129 12.532 4.129.195 0 .399 0 .596-.007l.078 2.02c-.225.009-.45.009-.674.009-4.817 0-9.837-1.01-12.533-2.924v4.358h.001v.017c.005.53.489 1.143 1.364 1.72 1.982 1.288 5.55 2.168 9.539 2.351l-.091 2.02c-4.126-.19-7.75-1.069-10.086-2.416-.31.298-.726 1.056-.726 1.467 0 1.724 4.768 4.129 12.532 4.129.738 0 1.465-.025 2.162-.075l.14 2.017c-.743.054-1.518.08-2.302.08-4.817 0-9.837-1.009-12.533-2.924v3.67h.001c.005.547.489 1.16 1.364 1.737 2.268 1.474 6.549 2.393 11.168 2.393h.33v2.022h-.33c-4.778 0-9.86-1.008-12.532-2.543-.322.298 0 1.01 0 1.548 0 1.725 4.768 4.13 12.532 4.13s12.532-2.405 12.532-4.13c0-.61-.6-1.174-1.092-1.538-.41.247-.86.483-1.372.7l-.768-1.868c.53-.223.99-.463 1.364-.711 1.1-.734 1.804-1.779 1.804-2.175h2c0 .94-.621 1.947-1.417 2.775 1.192 1.04 1.48 2.078 1.48 2.817M17.142 48.39c.791.408 1.716.772 2.752 1.08l.564-1.94a14 14 0 0 1-2.406-.94zm2.752-11.05.564-1.94c-.916-.272-1.726-.589-2.406-.94l-.91 1.799c.791.41 1.716.772 2.752 1.08m-2.752-13.21.91-1.801c.68.352 1.49.668 2.406.94l-.564 1.94a16 16 0 0 1-2.752-1.08"/></g></g><text x="1135.0" y="306" font-family="DejaVu Sans, Arial, Helvetica, sans-serif" font-size="12" font-weight="bold" fill="#232F3E" text-anchor="middle">Amazon DynamoDB</text><text x="1135.0" y="325" font-family="DejaVu Sans, Arial, Helvetica, sans-serif" font-size="11" fill="#5A6570" text-anchor="middle">Messwert je Gerät</text><text x="1135.0" y="339" font-family="DejaVu Sans, Arial, Helvetica, sans-serif" font-size="11" fill="#5A6570" text-anchor="middle">und Zeitstempel</text><path d="M1220,287.5 L1276,287.5" fill="none" stroke="#4A5568" stroke-width="2.0" marker-end="url(#ah)" stroke-linejoin="round"/><rect x="1280" y="230" width="190" height="115" rx="8" fill="#FFFFFF" stroke="#B7BDC6" stroke-width="1.2"/><g transform="translate(1353.0,242) scale(0.91667)"><path fill="#232f3d" fill-rule="evenodd" d="M37 35h9v2h-9v9h-2v-9h-9v-2h9v-9h2zM4 44h16V28H4zm17-18H3a1 1 0 0 0-1 1v18a1 1 0 0 0 1 1h18a1 1 0 0 0 1-1V27a1 1 0 0 0-1-1m7-6h16V4H28zM45 2H27a1 1 0 0 0-1 1v18a1 1 0 0 0 1 1h18a1 1 0 0 0 1-1V3a1 1 0 0 0-1-1M4 20h16V4H4zM21 2H3a1 1 0 0 0-1 1v18a1 1 0 0 0 1 1h18a1 1 0 0 0 1-1V3a1 1 0 0 0-1-1"/></g><text x="1375.0" y="306" font-family="DejaVu Sans, Arial, Helvetica, sans-serif" font-size="12" font-weight="bold" fill="#232F3E" text-anchor="middle">Auswertung</text><text x="1375.0" y="325" font-family="DejaVu Sans, Arial, Helvetica, sans-serif" font-size="10" fill="#5A6570" text-anchor="middle">liest den Einzelwert</text><text x="1375.0" y="338" font-family="DejaVu Sans, Arial, Helvetica, sans-serif" font-size="10" fill="#5A6570" text-anchor="middle">direkt per Key</text><path d="M734,475.0 L765,475.0 L765,547.5 L796,547.5" fill="none" stroke="#4A5568" stroke-width="2.0" marker-end="url(#ah)" stroke-linejoin="round"/><rect x="800" y="490" width="190" height="115" rx="8" fill="#FFFFFF" stroke="#B7BDC6" stroke-width="1.2"/><g transform="translate(873.0,502) scale(0.91667)"><path fill="#7aa116" fill-rule="evenodd" d="M32.546 23.274a1 1 0 0 1 0 1.367L19.448 38.612l-1.459-1.367 12.456-13.287L17.99 10.67l1.46-1.368zM4 23.958C4 12.953 12.953 4 23.958 4s19.957 8.953 19.957 19.958-8.953 19.957-19.957 19.957S4 34.962 4 23.958m-2 0c0 12.107 9.851 21.957 21.958 21.957 12.108 0 21.957-9.85 21.957-21.957S36.066 2 23.958 2C11.851 2 2 11.85 2 23.958"/></g><text x="895.0" y="566" font-family="DejaVu Sans, Arial, Helvetica, sans-serif" font-size="12" font-weight="bold" fill="#232F3E" text-anchor="middle">errorAction</text><text x="895.0" y="585" font-family="DejaVu Sans, Arial, Helvetica, sans-serif" font-size="10" fill="#5A6570" text-anchor="middle">greift erst nach den</text><text x="895.0" y="598" font-family="DejaVu Sans, Arial, Helvetica, sans-serif" font-size="10" fill="#5A6570" text-anchor="middle">Wiederholungen</text><path d="M990,547.5 L1046,547.5" fill="none" stroke="#4A5568" stroke-width="2.0" marker-end="url(#ah)" stroke-linejoin="round"/><rect x="1050" y="490" width="170" height="115" rx="8" fill="#FFFFFF" stroke="#B7BDC6" stroke-width="1.2"/><g transform="translate(1113.0,502) scale(0.91667)"><path fill="#e7157b" fill-rule="evenodd" d="M29.5 17c-3.258 0-6.03 2.092-7.062 5h2.169a5.5 5.5 0 0 1 4.893-3c3.032 0 5.5 2.467 5.5 5.5S32.532 30 29.5 30a5.49 5.49 0 0 1-4.24-2h-2.388a7.5 7.5 0 0 0 6.628 4c4.136 0 7.5-3.364 7.5-7.5S33.636 17 29.5 17M2 33h13v-2H2zm0-15h13v-2H2zm0 8h27v-2H2zm41.843 9.738-5.025-4.525a11.5 11.5 0 0 1-1.403 1.608l4.997 4.508a1.073 1.073 0 0 0 1.51-.08 1.075 1.075 0 0 0-.08-1.51m1.566 2.85a3.07 3.07 0 0 1-2.284 1.012 3.06 3.06 0 0 1-2.051-.785l-5.24-4.726A11.43 11.43 0 0 1 29.5 36c-5.12 0-9.467-3.366-10.951-8h2.128c1.397 3.51 4.822 6 8.823 6 5.238 0 9.5-4.262 9.5-9.5S34.738 15 29.5 15c-4.372 0-8.054 2.973-9.155 7h-2.063c1.146-5.143 5.737-9 11.218-9C35.84 13 41 18.158 41 24.5c0 1.777-.417 3.455-1.141 4.96l5.324 4.794a3.08 3.08 0 0 1 .226 4.334M1.999 41h19v-2H2zm0-31h21V8H2z"/></g><text x="1135.0" y="566" font-family="DejaVu Sans, Arial, Helvetica, sans-serif" font-size="12" font-weight="bold" fill="#232F3E" text-anchor="middle">CloudWatch Logs</text><text x="1135.0" y="585" font-family="DejaVu Sans, Arial, Helvetica, sans-serif" font-size="11" fill="#5A6570" text-anchor="middle">nur bei aktivem</text><text x="1135.0" y="599" font-family="DejaVu Sans, Arial, Helvetica, sans-serif" font-size="11" fill="#5A6570" text-anchor="middle">Logging</text><path d="M1220,547.5 L1276,547.5" fill="none" stroke="#4A5568" stroke-width="2.0" marker-end="url(#ah)" stroke-linejoin="round"/><rect x="1280" y="490" width="190" height="115" rx="8" fill="#FFFFFF" stroke="#B7BDC6" stroke-width="1.2"/><g transform="translate(1353.0,502) scale(0.91667)"><path fill="#242f3e" fill-rule="evenodd" d="M28.639 9.286c0-2.915 2.413-5.286 5.38-5.286s5.378 2.371 5.378 5.286-2.412 5.286-5.378 5.286-5.38-2.371-5.38-5.286m11.524 7.048a11.7 11.7 0 0 0-2.035-1.001c1.97-1.31 3.269-3.531 3.269-6.047 0-4.017-3.31-7.286-7.378-7.286-4.069 0-7.38 3.269-7.38 7.286 0 2.51 1.293 4.728 3.256 6.039a11.9 11.9 0 0 0-3.546 2.1l1.303 1.518A9.77 9.77 0 0 1 34 16.572c1.802 0 3.569.505 5.109 1.461 2.74 1.702 4.538 4.692 4.844 7.967H34v2h11a1 1 0 0 0 1-1c0-4.343-2.236-8.43-5.837-10.666M8.639 9.286C8.639 6.371 11.052 4 14.019 4s5.378 2.371 5.378 5.286-2.412 5.286-5.378 5.286-5.38-2.371-5.38-5.286M14 26H4.046C4.53 20.717 8.81 16.572 14 16.572c1.802 0 3.569.505 5.109 1.461.432.269.849.575 1.24.91l1.303-1.517a11.71 11.71 0 0 0-3.524-2.093c1.97-1.31 3.269-3.531 3.269-6.047 0-4.017-3.31-7.286-7.378-7.286-4.069 0-7.38 3.269-7.38 7.286 0 2.515 1.298 4.737 3.268 6.046C5.302 17.071 2 21.638 2 27a1 1 0 0 0 1 1h11zm.046 18c.484-5.283 4.764-9.428 9.954-9.428 1.802 0 3.569.505 5.109 1.461 2.74 1.702 4.538 4.692 4.844 7.967zm4.593-16.714c0-2.915 2.413-5.286 5.38-5.286s5.378 2.371 5.378 5.286-2.412 5.286-5.378 5.286-5.38-2.371-5.38-5.286m11.524 7.048a11.7 11.7 0 0 0-2.035-1.001c1.97-1.31 3.269-3.531 3.269-6.047 0-4.017-3.31-7.286-7.378-7.286-4.069 0-7.38 3.269-7.38 7.286 0 2.515 1.298 4.737 3.268 6.046C15.302 35.071 12 39.638 12 45a1 1 0 0 0 1 1h22a1 1 0 0 0 1-1c0-4.343-2.236-8.43-5.837-10.666"/></g><text x="1375.0" y="566" font-family="DejaVu Sans, Arial, Helvetica, sans-serif" font-size="12" font-weight="bold" fill="#232F3E" text-anchor="middle">Betrieb</text><text x="1375.0" y="585" font-family="DejaVu Sans, Arial, Helvetica, sans-serif" font-size="10" fill="#5A6570" text-anchor="middle">sieht, welche Nachricht</text><text x="1375.0" y="598" font-family="DejaVu Sans, Arial, Helvetica, sans-serif" font-size="10" fill="#5A6570" text-anchor="middle">verworfen wurde</text><text x="40" y="965" font-family="DejaVu Sans, Arial, Helvetica, sans-serif" font-size="10" fill="#8A94A6" text-anchor="start">Icons: AWS Architecture Icons (© Amazon Web Services, Inc.)</text><circle cx="52" cy="372.0" r="11.5" fill="#FFFFFF" stroke="#232F3E" stroke-width="1.6"/><text x="52" y="376.0" font-family="DejaVu Sans, Arial, Helvetica, sans-serif" font-size="12" font-weight="bold" fill="#232F3E" text-anchor="middle">1</text><circle cx="375.0" cy="502.0" r="11.5" fill="#FFFFFF" stroke="#232F3E" stroke-width="1.6"/><text x="375.0" y="506.0" font-family="DejaVu Sans, Arial, Helvetica, sans-serif" font-size="12" font-weight="bold" fill="#232F3E" text-anchor="middle">2</text><circle cx="493" cy="417.5" r="11.5" fill="#FFFFFF" stroke="#232F3E" stroke-width="1.6"/><text x="493" y="421.5" font-family="DejaVu Sans, Arial, Helvetica, sans-serif" font-size="12" font-weight="bold" fill="#232F3E" text-anchor="middle">3</text><circle cx="765" cy="323.75" r="11.5" fill="#FFFFFF" stroke="#232F3E" stroke-width="1.6"/><text x="765" y="327.75" font-family="DejaVu Sans, Arial, Helvetica, sans-serif" font-size="12" font-weight="bold" fill="#232F3E" text-anchor="middle">4</text><circle cx="1018" cy="287.5" r="11.5" fill="#FFFFFF" stroke="#232F3E" stroke-width="1.6"/><text x="1018" y="291.5" font-family="DejaVu Sans, Arial, Helvetica, sans-serif" font-size="12" font-weight="bold" fill="#232F3E" text-anchor="middle">7</text><circle cx="1248" cy="287.5" r="11.5" fill="#FFFFFF" stroke="#232F3E" stroke-width="1.6"/><text x="1248" y="291.5" font-family="DejaVu Sans, Arial, Helvetica, sans-serif" font-size="12" font-weight="bold" fill="#232F3E" text-anchor="middle">8</text><circle cx="765" cy="511.25" r="11.5" fill="#FFFFFF" stroke="#232F3E" stroke-width="1.6"/><text x="765" y="515.25" font-family="DejaVu Sans, Arial, Helvetica, sans-serif" font-size="12" font-weight="bold" fill="#232F3E" text-anchor="middle">5</text><circle cx="1018" cy="547.5" r="11.5" fill="#FFFFFF" stroke="#232F3E" stroke-width="1.6"/><text x="1018" y="551.5" font-family="DejaVu Sans, Arial, Helvetica, sans-serif" font-size="12" font-weight="bold" fill="#232F3E" text-anchor="middle">7</text><circle cx="1248" cy="547.5" r="11.5" fill="#FFFFFF" stroke="#232F3E" stroke-width="1.6"/><text x="1248" y="551.5" font-family="DejaVu Sans, Arial, Helvetica, sans-serif" font-size="12" font-weight="bold" fill="#232F3E" text-anchor="middle">8</text></svg>