<svg xmlns="http://www.w3.org/2000/svg" width="1600" height="713" viewBox="0 0 1600 713"><defs><marker id="ah" viewBox="0 0 10 10" refX="9" refY="5" markerWidth="7" markerHeight="7" orient="auto-start-reverse"><path d="M0 0 L10 5 L0 10 z" fill="#4A5568"/></marker><marker id="ahr" viewBox="0 0 10 10" refX="9" refY="5" markerWidth="7" markerHeight="7" orient="auto-start-reverse"><path d="M0 0 L10 5 L0 10 z" fill="#C7161D"/></marker></defs><rect width="1600" height="713" fill="#FFFFFF"/><text x="40" y="48" font-family="DejaVu Sans, Arial, Helvetica, sans-serif" font-size="26" font-weight="bold" fill="#232F3E" text-anchor="start"></text><rect x="208" y="100" width="1190" height="487.5" rx="6" fill="none" stroke="#232F3E" stroke-width="1.8"/><g transform="translate(222,112) scale(0.60000)"><g fill="none" fill-rule="evenodd"><path fill="#242f3e" d="M0 0h40v40H0z"/><path fill="#fff" d="m28.993 27.995-17.506-.019c-2.366-.002-4.333-1.847-4.475-4.2A6 6 0 0 1 7 23.396c0-3.098 2.091-4.11 3.337-4.438a.5.5 0 0 0 .37-.54 7 7 0 0 1-.048-.823c0-2.464 1.649-5.114 3.756-6.033.944-.413 1.817-.577 2.608-.577 2.253 0 3.844 1.33 4.538 2.047.768.793 1.366 1.805 1.779 3.01a.498.498 0 0 0 .879.128c.588-.82 1.547-1.189 2.44-.932 1.123.321 1.857 1.488 1.961 3.068a.5.5 0 0 0 .407.57C30.222 19.09 33 19.957 33 23.44c0 4.15-3.886 4.542-4.007 4.555m.601-10.02c-.215-1.908-1.194-3.279-2.66-3.697-1.035-.296-2.123-.033-2.945.672-.436-1.014-1.01-1.89-1.709-2.612-2.257-2.333-5.347-2.966-8.266-1.692-2.483 1.084-4.355 4.072-4.355 6.95q0 .261.017.518C8.319 18.574 6 19.875 6 23.397q0 .229.014.441c.174 2.878 2.579 5.135 5.472 5.138l17.548.017C29.084 28.99 34 28.52 34 23.44c0-3.938-2.997-5.126-4.406-5.466"/></g></g><text x="254" y="131" font-family="DejaVu Sans, Arial, Helvetica, sans-serif" font-size="14" font-weight="bold" fill="#232F3E" text-anchor="start">AWS Cloud</text><rect x="230" y="145" width="1146" height="420.5" rx="6" fill="none" stroke="#00A4A6" stroke-width="1.8"/><g transform="translate(244,157) scale(0.55000)"><g fill="none" fill-rule="evenodd"><path fill="#00a4a6" d="M0 0h40v40H0z"/><path fill="#fff" d="M14 20.026v-9h15.293l-4.147 4.146a.5.5 0 0 0 0 .708l4.147 4.146zm12.207-4.5 4.647-4.646a.5.5 0 0 0-.354-.854H14V8.97A1.528 1.528 0 0 0 13.495 6c-.845 0-1.532.687-1.532 1.531 0 .67.435 1.235 1.037 1.442v24.053h-3v1h7v-1h-3v-12h16.5a.5.5 0 0 0 .354-.854z"/></g></g><text x="274" y="174" font-family="DejaVu Sans, Arial, Helvetica, sans-serif" font-size="13" font-weight="bold" fill="#00A4A6" text-anchor="start">Region eu-central-1 (Frankfurt)</text><rect x="40" y="210.0" width="145" height="117.75" rx="8" fill="#FFFFFF" stroke="#B7BDC6" stroke-width="1.2"/><g transform="translate(91.5,222.0) scale(0.87500)"><path fill="#242f3e" fill-rule="evenodd" d="M6.025 44c.499-9.915 8.37-17.822 17.975-17.822 3.248 0 6.43.914 9.205 2.644 5.149 3.211 8.448 8.961 8.769 15.178zm8.167-30.122c0-5.446 4.4-9.878 9.809-9.878 5.407 0 9.806 4.432 9.806 9.878 0 5.447-4.399 9.879-9.806 9.879-5.409 0-9.809-4.432-9.809-9.879m20.071 13.247a19.4 19.4 0 0 0-5.565-2.354 11.89 11.89 0 0 0 7.109-10.893C35.807 7.329 30.51 2 24.001 2c-6.512 0-11.809 5.329-11.809 11.878 0 4.877 2.938 9.072 7.125 10.9C10.545 26.981 4 35.2 4 45a1 1 0 0 0 1 1h38a1 1 0 0 0 1-1c0-7.281-3.731-14.13-9.737-17.875"/></g><text x="112.5" y="284.0" font-family="DejaVu Sans, Arial, Helvetica, sans-serif" font-size="12" font-weight="bold" fill="#232F3E" text-anchor="middle">Developer</text><text x="112.5" y="303.0" font-family="DejaVu Sans, Arial, Helvetica, sans-serif" font-size="11" fill="#5A6570" text-anchor="middle">kubectl apply,</text><text x="112.5" y="317.0" font-family="DejaVu Sans, Arial, Helvetica, sans-serif" font-size="11" fill="#5A6570" text-anchor="middle">neue Workload</text><path d="M189,268.875 L268,268.875" fill="none" stroke="#4A5568" stroke-width="2.0" marker-end="url(#ah)" stroke-linejoin="round"/><rect x="272" y="210" width="190" height="117.75" rx="8" fill="#FFFFFF" stroke="#B7BDC6" stroke-width="1.2"/><g transform="translate(345.0,222) scale(0.68750)"><g fill="none" fill-rule="evenodd"><path fill="#ed7100" d="M0 0h64v64H0z"/><path fill="#fff" d="m37.708 25-5.058 6.34 5.317 6.681h-2.215L31 32.001v6h-2V25h2v5.24l4.463-5.24zM50 36.382l-6-3V25a1 1 0 0 0-.515-.874L35 19.412V12.75l15 8.822zm1.507-16.244-17-10a1.001 1.001 0 0 0-1.507.863v9c0 .362.197.697.515.873L42 25.588V34c0 .38.214.725.553.895l8 4a1 1 0 0 0 .972-.044c.295-.183.475-.504.475-.85V21c0-.355-.188-.683-.493-.863M32 51.828 15 41.439V21.554l14-8.75v6.642l-7.53 4.706A1 1 0 0 0 21 25v13a1 1 0 0 0 .485.857l10 6a1 1 0 0 0 .994.021l10.509-5.732 5.047 2.883zm18.496-10.696-7-4a1 1 0 0 0-.975-.01l-10.498 5.726L23 37.434v-11.88l7.53-4.706A1 1 0 0 0 31 20v-9a1 1 0 0 0-1.53-.847l-16 10A1 1 0 0 0 13 21v21c0 .348.182.671.479.854l18 11a1 1 0 0 0 1.042 0l18-11a1 1 0 0 0-.025-1.722"/></g></g><text x="367.0" y="286" font-family="DejaVu Sans, Arial, Helvetica, sans-serif" font-size="12" font-weight="bold" fill="#232F3E" text-anchor="middle">Amazon EKS</text><text x="367.0" y="305" font-family="DejaVu Sans, Arial, Helvetica, sans-serif" font-size="11" fill="#5A6570" text-anchor="middle">Pods bleiben Pending —</text><text x="367.0" y="319" font-family="DejaVu Sans, Arial, Helvetica, sans-serif" font-size="11" fill="#5A6570" text-anchor="middle">keine freie Kapazität</text><rect x="490" y="210" width="190" height="117.75" rx="8" fill="#FFFFFF" stroke="#B7BDC6" stroke-width="1.2"/><g transform="translate(563.0,222) scale(0.91667)"><path fill="#232f3d" fill-rule="evenodd" d="M24.006 31.814c-4.306 0-7.809-3.503-7.809-7.809 0-4.305 3.503-7.808 7.809-7.808s7.809 3.503 7.809 7.808c0 4.306-3.503 7.809-7.809 7.809m0-17.617c-5.408 0-9.809 4.4-9.809 9.808 0 5.409 4.401 9.809 9.809 9.809s9.809-4.4 9.809-9.809-4.401-9.808-9.809-9.808m20.006 13.552h-3.528a1 1 0 0 0-.967.742c-.37 1.393-.961 2.402-1.646 3.57a1 1 0 0 0 .158 1.214l2.492 2.476-4.799 4.77-2.499-2.485a1 1 0 0 0-1.206-.156l-.22.127c-1.175.681-2.023 1.173-3.303 1.509a1 1 0 0 0-.745.967v3.528h-7.486v-3.526a1 1 0 0 0-.743-.966c-1.375-.366-2.367-.913-3.616-1.643a1 1 0 0 0-1.214.158l-2.471 2.488-4.763-4.795 2.482-2.498c.317-.32.381-.814.156-1.205l-.109-.186c-.688-1.191-1.186-2.052-1.526-3.344a1 1 0 0 0-.967-.745H4v-7.487h3.526a1 1 0 0 0 .966-.743c.372-1.403.94-2.436 1.644-3.641a1 1 0 0 0-.157-1.213l-2.492-2.481 4.795-4.777 2.496 2.487a1 1 0 0 0 1.207.157l.177-.102c1.197-.694 2.061-1.196 3.356-1.536.438-.116.745-.514.745-.968V4h7.486v3.51a1 1 0 0 0 .741.966c1.271.34 2.12.842 3.293 1.535l.173.102a1 1 0 0 0 1.22-.159l2.436-2.47 4.705 4.768-2.457 2.491c-.315.32-.378.811-.155 1.2.702 1.221 1.257 2.186 1.618 3.572.116.44.513.747.968.747h3.721zm.125-9.487h-3.099c-.331-.999-.749-1.815-1.221-2.655l2.01-2.037a1.883 1.883 0 0 0 0-2.634l-4.88-4.947c-.711-.72-1.959-.72-2.67 0l-1.978 2.006c-.814-.474-1.592-.894-2.55-1.224V3.875A1.877 1.877 0 0 0 27.874 2h-7.736a1.877 1.877 0 0 0-1.875 1.875v2.827c-.983.332-1.78.756-2.615 1.234l-2.042-2.034a1.88 1.88 0 0 0-2.647 0l-4.973 4.954a1.86 1.86 0 0 0-.55 1.327c0 .503.195.974.55 1.33l2.038 2.028c-.48.853-.908 1.707-1.244 2.721H3.876A1.88 1.88 0 0 0 2 20.137v7.737c0 1.033.842 1.875 1.876 1.875h2.872c.332.982.754 1.778 1.232 2.613l-2.031 2.044a1.88 1.88 0 0 0 .001 2.642l4.938 4.972c.353.357.826.554 1.329.554h.002c.503 0 .975-.197 1.331-.554l2.017-2.031c.868.491 1.702.909 2.696 1.241v2.906c0 1.033.841 1.875 1.875 1.875h7.736a1.88 1.88 0 0 0 1.875-1.875v-2.909c.982-.332 1.774-.755 2.607-1.233l2.044 2.032a1.88 1.88 0 0 0 2.644 0l4.975-4.945c.357-.354.554-.828.554-1.331a1.86 1.86 0 0 0-.553-1.329l-2.034-2.02c.468-.817.901-1.648 1.24-2.652h2.911a1.88 1.88 0 0 0 1.875-1.875v-7.737a1.88 1.88 0 0 0-1.875-1.875"/></g><text x="585.0" y="286" font-family="DejaVu Sans, Arial, Helvetica, sans-serif" font-size="12" font-weight="bold" fill="#232F3E" text-anchor="middle">Karpenter</text><text x="585.0" y="305" font-family="DejaVu Sans, Arial, Helvetica, sans-serif" font-size="11" fill="#5A6570" text-anchor="middle">liest die Anforderungen</text><text x="585.0" y="319" font-family="DejaVu Sans, Arial, Helvetica, sans-serif" font-size="11" fill="#5A6570" text-anchor="middle">der Pending Pods</text><path d="M466,268.875 L486,268.875" fill="none" stroke="#4A5568" stroke-width="2.0" marker-end="url(#ah)" stroke-linejoin="round"/><rect x="708" y="210" width="190" height="117.75" rx="8" fill="#FFFFFF" stroke="#B7BDC6" stroke-width="1.2"/><g transform="translate(781.0,222) scale(0.91667)"><path fill="#ed7100" fill-rule="evenodd" d="M3.675 24.96H2v-2h1.675a20.1 20.1 0 0 1 3.806-10.899L9.1 13.232a18.15 18.15 0 0 0-3.425 9.728h1.596v2H5.675a18.15 18.15 0 0 0 3.426 9.729L7.48 35.86a20.13 20.13 0 0 1-3.805-10.9m32.186 15.48c-3.204 2.321-6.955 3.617-10.901 3.806v1.616h-2v-1.616c-3.944-.189-7.695-1.485-10.899-3.806l1.172-1.619a18.14 18.14 0 0 0 9.727 3.425v-1.597h2v1.597a18.14 18.14 0 0 0 9.729-3.425zm-23.8-32.959c3.204-2.321 6.955-3.617 10.899-3.807V2h2v1.674c3.946.19 7.697 1.486 10.901 3.807L34.689 9.1a18.15 18.15 0 0 0-9.729-3.426v1.597h-2V5.674A18.14 18.14 0 0 0 13.233 9.1zM45.92 24.96h-1.673c-.19 3.944-1.486 7.696-3.805 10.9l-1.621-1.171a18.15 18.15 0 0 0 3.426-9.729H40.65v-2h1.597a18.14 18.14 0 0 0-3.426-9.728l1.62-1.171c2.32 3.203 3.616 6.955 3.806 10.899h1.673zM35.551 10.956l6.148-6.149 1.414 1.414-6.148 6.149zM12.37 36.965l-6.149 6.148-1.414-1.414 6.149-6.148zm19.325-6.685 11.418 11.419-1.414 1.414L30.28 31.694zM16.226 17.64 4.807 6.221l1.414-1.414L17.64 16.226zm17.275 5.32v-8.541H24.96v2.485h-2v-3.077a1.41 1.41 0 0 1 1.408-1.408h9.725a1.41 1.41 0 0 1 1.408 1.408v9.725a1.41 1.41 0 0 1-1.408 1.408h-3.106v-2zm-19.081 2v8.541h8.54v-2.514h2v3.106a1.41 1.41 0 0 1-1.408 1.408h-9.724a1.41 1.41 0 0 1-1.408-1.408v-9.725a1.41 1.41 0 0 1 1.408-1.408h3.105v2zm5.27 3.271h8.541V19.69H19.69zm10.541.348v-9.238c0-.91-.742-1.652-1.652-1.652h-9.238c-.91 0-1.651.742-1.651 1.652v9.238c0 .91.741 1.652 1.651 1.652h9.238c.91 0 1.652-.742 1.652-1.652"/></g><text x="803.0" y="286" font-family="DejaVu Sans, Arial, Helvetica, sans-serif" font-size="12" font-weight="bold" fill="#232F3E" text-anchor="middle">Amazon EC2</text><text x="803.0" y="305" font-family="DejaVu Sans, Arial, Helvetica, sans-serif" font-size="11" fill="#5A6570" text-anchor="middle">Spot NodePool für</text><text x="803.0" y="319" font-family="DejaVu Sans, Arial, Helvetica, sans-serif" font-size="11" fill="#5A6570" text-anchor="middle">unterbrechbare Pods</text><path d="M684,268.875 L704,268.875" fill="none" stroke="#4A5568" stroke-width="2.0" marker-end="url(#ah)" stroke-linejoin="round"/><rect x="926" y="210" width="190" height="117.75" rx="8" fill="#FFFFFF" stroke="#B7BDC6" stroke-width="1.2"/><g transform="translate(999.0,222) scale(0.68750)"><g fill="none" fill-rule="evenodd"><path fill="#e7157b" d="M0 0h64v64H0z"/><path fill="#fff" d="M43.262 52c-1.566 0-2.84-1.264-2.84-2.818s1.274-2.818 2.84-2.818 2.839 1.264 2.839 2.818S44.827 52 43.26 52m-6.718-13H28.4l-4.072-7 4.072-7h8.144l4.072 7zM22.746 17.636c-1.566 0-2.84-1.264-2.84-2.818S21.18 12 22.746 12s2.84 1.264 2.84 2.818-1.275 2.818-2.84 2.818m20.516 26.728c-.542 0-1.055.109-1.543.272l-3.103-5.198 4.036-6.938c.18-.31.18-.69 0-1l-4.654-8c-.18-.31-.512-.5-.873-.5h-8.324l-2.777-4.651c.963-.881 1.576-2.132 1.576-3.531 0-2.656-2.177-4.818-4.854-4.818s-4.855 2.162-4.855 4.818c0 2.657 2.177 4.818 4.855 4.818.542 0 1.055-.109 1.542-.272l2.566 4.295-4.561 7.841c-.18.31-.18.69 0 1l4.653 8c.18.31.512.5.873.5h9.306c.026 0 .05-.008.075-.01l2.783 4.661c-.962.881-1.575 2.132-1.575 3.531 0 2.656 2.177 4.818 4.854 4.818s4.854-2.162 4.854-4.818c0-2.657-2.177-4.818-4.854-4.818m4.672-18.728c-1.566 0-2.84-1.264-2.84-2.818S46.367 20 47.933 20c1.564 0 2.839 1.264 2.839 2.818s-1.275 2.818-2.84 2.818m3.045.903c1.094-.884 1.809-2.214 1.809-3.721 0-2.656-2.177-4.818-4.854-4.818a4.8 4.8 0 0 0-1.8.353l-2.73-3.921c-.189-.27-.499-.432-.83-.432h-9.067v2h8.54l2.41 3.466a4.78 4.78 0 0 0-1.379 3.352c0 2.657 2.178 4.818 4.856 4.818.434 0 .848-.075 1.25-.182L51.83 32l-3.85 6.616 1.746 1 4.139-7.116c.18-.31.18-.69 0-1zM17.71 43.636c-1.566 0-2.84-1.264-2.84-2.818S16.142 38 17.708 38c1.564 0 2.839 1.264 2.839 2.818s-1.275 2.818-2.84 2.818m2.913 1.011c1.17-.88 1.94-2.261 1.94-3.829 0-2.656-2.177-4.818-4.854-4.818-.7 0-1.364.155-1.965.421L13.17 32l4.472-7.689-1.745-1-4.763 8.189c-.18.31-.18.69 0 1l2.974 5.114c-.771.854-1.256 1.969-1.256 3.204 0 2.657 2.178 4.818 4.855 4.818.368 0 .723-.048 1.066-.125l2.821 4.057c.189.27.498.432.83.432h9.067v-2h-8.537z"/></g></g><text x="1021.0" y="286" font-family="DejaVu Sans, Arial, Helvetica, sans-serif" font-size="12" font-weight="bold" fill="#232F3E" text-anchor="middle">Amazon EventBridge</text><text x="1021.0" y="305" font-family="DejaVu Sans, Arial, Helvetica, sans-serif" font-size="11" fill="#5A6570" text-anchor="middle">Rule fängt die Spot-</text><text x="1021.0" y="319" font-family="DejaVu Sans, Arial, Helvetica, sans-serif" font-size="11" fill="#5A6570" text-anchor="middle">Kündigung ab (~2 Min.)</text><path d="M902,268.875 L922,268.875" fill="none" stroke="#4A5568" stroke-width="2.0" marker-end="url(#ah)" stroke-linejoin="round"/><rect x="1144" y="210" width="190" height="117.75" rx="8" fill="#FFFFFF" stroke="#B7BDC6" stroke-width="1.2"/><g transform="translate(1217.0,222) scale(0.68750)"><g fill="none" fill-rule="evenodd"><path fill="#e7157b" d="M0 0h64v64H0z"/><path fill="#fff" d="m23.847 35.514 1.999-2.95a.98.98 0 0 0 .002-1.096l-2-2.976-1.665 1.092.96 1.429h-3.127v1.975h3.136l-.967 1.427zm17.996-.002 2-2.964a.98.98 0 0 0 0-1.096l-2-2.962-1.664 1.095.964 1.429h-3.131v1.975h3.13l-.963 1.427zM28.494 32c0 1.485-.232 2.896-.667 4.154a13.4 13.4 0 0 1 4.188-.654c1.44 0 2.879.218 4.188.654-.434-1.258-.667-2.669-.667-4.154 0-1.483.233-2.894.667-4.152-2.62.872-5.755.872-8.376 0 .435 1.258.667 2.669.667 4.152m-4.19 7.62a.98.98 0 0 1 0-1.397c1.372-1.356 2.19-3.682 2.19-6.223 0-2.539-.818-4.865-2.19-6.221a.98.98 0 0 1 0-1.397 1.007 1.007 0 0 1 1.413 0c2.942 2.907 9.654 2.907 12.597 0a1.007 1.007 0 0 1 1.414 0 .98.98 0 0 1 0 1.397c-1.373 1.356-2.193 3.682-2.193 6.221s.82 4.867 2.193 6.223a.98.98 0 0 1 0 1.397 1 1 0 0 1-.707.29 1 1 0 0 1-.707-.29c-2.943-2.907-9.655-2.907-12.597 0a1.007 1.007 0 0 1-1.414 0m26.969-9.357a2.5 2.5 0 0 0-1.764-.722 2.5 2.5 0 0 0-1.763.722 2.43 2.43 0 0 0-.731 1.741c0 .66.26 1.278.73 1.743a2.52 2.52 0 0 0 3.528 0 2.446 2.446 0 0 0 0-3.484m1.413 4.88a4.5 4.5 0 0 1-3.177 1.3 4.5 4.5 0 0 1-3.177-1.3 4.38 4.38 0 0 1-1.317-3.139c0-1.185.468-2.3 1.317-3.139a4.5 4.5 0 0 1 3.177-1.3c1.2 0 2.329.462 3.177 1.301a4.406 4.406 0 0 1 0 6.277M16.254 30.28a2.5 2.5 0 0 0-1.762-.721c-.667 0-1.293.256-1.765.72a2.447 2.447 0 0 0 0 3.486c.942.929 2.586.93 3.527 0a2.447 2.447 0 0 0 0-3.485m1.414 4.881a4.5 4.5 0 0 1-3.176 1.3 4.5 4.5 0 0 1-3.178-1.3 4.407 4.407 0 0 1 0-6.278 4.5 4.5 0 0 1 3.178-1.3c1.2 0 2.328.462 3.176 1.3a4.407 4.407 0 0 1 0 6.278m25.763 8.175c-6.329 6.253-16.627 6.253-22.956 0-1.634-1.614-2.651-3.275-3.513-5.732l-1.89.647c.968 2.762 2.125 4.64 3.99 6.481C22.616 48.245 27.284 50 31.952 50c4.67 0 9.338-1.755 12.892-5.268 1.989-1.964 3.22-3.904 4.111-6.485l-1.891-.64c-.788 2.279-1.874 3.991-3.633 5.729M16.96 26.399l-1.887-.649c.96-2.728 2.153-4.667 3.993-6.484 7.105-7.021 18.667-7.021 25.772 0 1.943 1.919 3.211 3.919 4.114 6.484l-1.887.649c-.81-2.3-1.899-4.016-3.64-5.737-6.327-6.25-16.62-6.25-22.946 0-1.633 1.614-2.653 3.277-3.519 5.737"/></g></g><text x="1239.0" y="286" font-family="DejaVu Sans, Arial, Helvetica, sans-serif" font-size="12" font-weight="bold" fill="#232F3E" text-anchor="middle">Amazon SQS</text><text x="1239.0" y="305" font-family="DejaVu Sans, Arial, Helvetica, sans-serif" font-size="11" fill="#5A6570" text-anchor="middle">Interruption Queue,</text><text x="1239.0" y="319" font-family="DejaVu Sans, Arial, Helvetica, sans-serif" font-size="11" fill="#5A6570" text-anchor="middle">Karpenter liest sie</text><path d="M1120,268.875 L1140,268.875" fill="none" stroke="#4A5568" stroke-width="2.0" marker-end="url(#ah)" stroke-linejoin="round"/><rect x="490" y="382.75" width="190" height="117.75" rx="8" fill="#FFFFFF" stroke="#B7BDC6" stroke-width="1.2"/><g transform="translate(563.0,394.75) scale(0.68750)"><g fill="none" fill-rule="evenodd"><path fill="#ed7100" d="M0 0h64v64H0z"/><path fill="#fff" d="M22 41h19V23H22zm21-18h3v2h-3v2h3v2h-3v2h3v2h-3v3h3v2h-3v2h3v2h-3.137c-.255.587-.84 1-1.519 1H41v3h-2v-3h-2v3h-2v-3h-2v3h-2v-3h-2v3h-2v-3h-3v3h-2v-3h-.344a1.66 1.66 0 0 1-1.519-1H18v-2h2v-2h-2v-2h2v-3h-2v-2h2v-2h-2v-2h2v-2h-2v-2h2v-.344c0-.913.743-1.656 1.656-1.656H22v-3h2v3h3v-3h2v3h2v-3h2v3h2v-3h2v3h2v-3h2v3h.344c.913 0 1.656.743 1.656 1.656zM32 52H12V32h4v-2h-4.157A1.845 1.845 0 0 0 10 31.843v20.314c0 1.016.826 1.843 1.843 1.843h20.314A1.845 1.845 0 0 0 34 52.157V48h-2zm22-40.157v20.314A1.845 1.845 0 0 1 52.157 34H48v-2h4V12H32v4h-2v-4.157c0-1.016.826-1.843 1.843-1.843h20.314c1.017 0 1.843.827 1.843 1.843"/></g></g><text x="585.0" y="458.75" font-family="DejaVu Sans, Arial, Helvetica, sans-serif" font-size="12" font-weight="bold" fill="#232F3E" text-anchor="middle">Amazon EC2</text><text x="585.0" y="477.75" font-family="DejaVu Sans, Arial, Helvetica, sans-serif" font-size="11" fill="#5A6570" text-anchor="middle">On-Demand NodePool für</text><text x="585.0" y="491.75" font-family="DejaVu Sans, Arial, Helvetica, sans-serif" font-size="11" fill="#5A6570" text-anchor="middle">kritische, stateful Pods</text><path d="M585.0,331.75 L585.0,378.75" fill="none" stroke="#4A5568" stroke-width="2.0" marker-end="url(#ah)" stroke-linejoin="round"/><text x="607.0" y="359.75" font-family="DejaVu Sans, Arial, Helvetica, sans-serif" font-size="11" font-weight="bold" fill="#3B7D2F" text-anchor="start">kritisch</text><rect x="1144" y="382.75" width="190" height="117.75" rx="8" fill="#FFFFFF" stroke="#B7BDC6" stroke-width="1.2"/><g transform="translate(1217.0,394.75) scale(0.68750)"><g fill="none" fill-rule="evenodd"><path fill="#ed7100" d="M0 0h64v64H0z"/><path fill="#fff" d="M22 41h19V23H22zm21-18h3v2h-3v2h3v2h-3v2h3v2h-3v3h3v2h-3v2h3v2h-3.137c-.255.587-.84 1-1.519 1H41v3h-2v-3h-2v3h-2v-3h-2v3h-2v-3h-2v3h-2v-3h-3v3h-2v-3h-.344a1.66 1.66 0 0 1-1.519-1H18v-2h2v-2h-2v-2h2v-3h-2v-2h2v-2h-2v-2h2v-2h-2v-2h2v-.344c0-.913.743-1.656 1.656-1.656H22v-3h2v3h3v-3h2v3h2v-3h2v3h2v-3h2v3h2v-3h2v3h.344c.913 0 1.656.743 1.656 1.656zM32 52H12V32h4v-2h-4.157A1.845 1.845 0 0 0 10 31.843v20.314c0 1.016.826 1.843 1.843 1.843h20.314A1.845 1.845 0 0 0 34 52.157V48h-2zm22-40.157v20.314A1.845 1.845 0 0 1 52.157 34H48v-2h4V12H32v4h-2v-4.157c0-1.016.826-1.843 1.843-1.843h20.314c1.017 0 1.843.827 1.843 1.843"/></g></g><text x="1239.0" y="458.75" font-family="DejaVu Sans, Arial, Helvetica, sans-serif" font-size="12" font-weight="bold" fill="#232F3E" text-anchor="middle">Amazon EC2</text><text x="1239.0" y="477.75" font-family="DejaVu Sans, Arial, Helvetica, sans-serif" font-size="11" fill="#5A6570" text-anchor="middle">Ersatz-Node, die Pods</text><text x="1239.0" y="491.75" font-family="DejaVu Sans, Arial, Helvetica, sans-serif" font-size="11" fill="#5A6570" text-anchor="middle">wandern um</text><path d="M1239.0,331.75 L1239.0,378.75" fill="none" stroke="#4A5568" stroke-width="2.0" marker-end="url(#ah)" stroke-linejoin="round"/><text x="1261.0" y="359.75" font-family="DejaVu Sans, Arial, Helvetica, sans-serif" font-size="11" font-weight="bold" fill="#C7161D" text-anchor="start">cordon + drain</text><text x="40" y="697.5" font-family="DejaVu Sans, Arial, Helvetica, sans-serif" font-size="10" fill="#8A94A6" text-anchor="start">Icons: AWS Architecture Icons (© Amazon Web Services, Inc.)</text><circle cx="205" cy="268.875" r="11.5" fill="#FFFFFF" stroke="#232F3E" stroke-width="1.6"/><text x="205" y="272.875" font-family="DejaVu Sans, Arial, Helvetica, sans-serif" font-size="12" font-weight="bold" fill="#232F3E" text-anchor="middle">1</text><circle cx="476.0" cy="268.875" r="11.5" fill="#FFFFFF" stroke="#232F3E" stroke-width="1.6"/><text x="476.0" y="272.875" font-family="DejaVu Sans, Arial, Helvetica, sans-serif" font-size="12" font-weight="bold" fill="#232F3E" text-anchor="middle">2</text><circle cx="694.0" cy="268.875" r="11.5" fill="#FFFFFF" stroke="#232F3E" stroke-width="1.6"/><text x="694.0" y="272.875" font-family="DejaVu Sans, Arial, Helvetica, sans-serif" font-size="12" font-weight="bold" fill="#232F3E" text-anchor="middle">3</text><circle cx="912.0" cy="268.875" r="11.5" fill="#FFFFFF" stroke="#232F3E" stroke-width="1.6"/><text x="912.0" y="272.875" font-family="DejaVu Sans, Arial, Helvetica, sans-serif" font-size="12" font-weight="bold" fill="#232F3E" text-anchor="middle">4</text><circle cx="1130.0" cy="268.875" r="11.5" fill="#FFFFFF" stroke="#232F3E" stroke-width="1.6"/><text x="1130.0" y="272.875" font-family="DejaVu Sans, Arial, Helvetica, sans-serif" font-size="12" font-weight="bold" fill="#232F3E" text-anchor="middle">5</text><circle cx="585.0" cy="353.75" r="11.5" fill="#FFFFFF" stroke="#232F3E" stroke-width="1.6"/><text x="585.0" y="357.75" font-family="DejaVu Sans, Arial, Helvetica, sans-serif" font-size="12" font-weight="bold" fill="#232F3E" text-anchor="middle">6</text><circle cx="1239.0" cy="353.75" r="11.5" fill="#FFFFFF" stroke="#232F3E" stroke-width="1.6"/><text x="1239.0" y="357.75" font-family="DejaVu Sans, Arial, Helvetica, sans-serif" font-size="12" font-weight="bold" fill="#232F3E" text-anchor="middle">7</text></svg>